<svg width="16" height="16" viewBox="0 0 16 16" fill="none" xmlns="http://www.w3.org/2000/svg">
<path fill-rule="evenodd" clip-rule="evenodd" d="M5.17135 10.8284C5.26512 10.9221 5.3923 10.9748 5.5249 10.9748C5.65751 10.9748 5.78469 10.9221 5.87846 10.8284L9.97473 6.73209L9.97402 9.7677C9.97402 9.83345 9.98697 9.89855 10.0121 9.95929C10.0373 10.02 10.0742 10.0752 10.1207 10.1217C10.1671 10.1682 10.2223 10.2051 10.2831 10.2302C10.3438 10.2554 10.4089 10.2683 10.4747 10.2683C10.5404 10.2683 10.6055 10.2554 10.6662 10.2302C10.727 10.2051 10.7822 10.1682 10.8287 10.1217C10.8751 10.0752 10.912 10.02 10.9372 9.95929C10.9623 9.89855 10.9753 9.83345 10.9753 9.7677V5.52506C10.9754 5.4593 10.9625 5.39416 10.9373 5.33338C10.9122 5.2726 10.8753 5.21738 10.8288 5.17088C10.7823 5.12437 10.7271 5.0875 10.6663 5.06237C10.6056 5.03724 10.5404 5.02435 10.4747 5.02443H6.23201C6.09923 5.02443 5.9719 5.07718 5.87801 5.17106C5.78412 5.26495 5.73138 5.39229 5.73138 5.52506C5.73138 5.65784 5.78412 5.78518 5.87801 5.87906C5.9719 5.97295 6.09923 6.02569 6.23201 6.02569L9.26762 6.02499L5.17135 10.1213C5.07758 10.215 5.0249 10.3422 5.0249 10.4748C5.0249 10.6074 5.07758 10.7346 5.17135 10.8284Z" fill="#AAABB0"/>
</svg>
