<svg width="15" height="11" viewBox="0 0 15 11" fill="none" xmlns="http://www.w3.org/2000/svg">
<path fill-rule="evenodd" clip-rule="evenodd" d="M4.84826 7.44445C4.93617 7.50892 5.0554 7.54514 5.17972 7.54514C5.30404 7.54514 5.42327 7.50892 5.51118 7.44445L9.35143 4.62827L9.35077 6.71525C9.35076 6.76045 9.3629 6.8052 9.38649 6.84696C9.41008 6.88872 9.44465 6.92666 9.48823 6.95862C9.53181 6.99058 9.58355 7.01594 9.6405 7.03323C9.69744 7.05053 9.75847 7.05943 9.82011 7.05943C9.88174 7.05943 9.94277 7.05053 9.99972 7.03323C10.0567 7.01594 10.1084 6.99059 10.152 6.95862C10.1956 6.92666 10.2301 6.88872 10.2537 6.84696C10.2773 6.8052 10.2894 6.76045 10.2894 6.71525L10.2894 3.79843C10.2895 3.75322 10.2774 3.70844 10.2539 3.66665C10.2303 3.62487 10.1958 3.5869 10.1522 3.55493C10.1086 3.52296 10.0568 3.49761 9.99981 3.48033C9.94283 3.46306 9.88176 3.45419 9.82011 3.45425L5.84263 3.45425C5.71815 3.45425 5.59877 3.49051 5.51076 3.55506C5.42274 3.61961 5.37329 3.70715 5.37329 3.79843C5.37329 3.88972 5.42274 3.97726 5.51076 4.04181C5.59878 4.10636 5.71815 4.14262 5.84263 4.14262L8.68852 4.14213L4.84826 6.95832C4.76036 7.02278 4.71097 7.11022 4.71097 7.20139C4.71097 7.29255 4.76035 7.37999 4.84826 7.44445Z" fill="#AAABB0"/>
</svg>
