<svg width="16" height="16" viewBox="0 0 16 16" fill="none" xmlns="http://www.w3.org/2000/svg">
<path fill-rule="evenodd" clip-rule="evenodd" d="M5.17135 10.8282C5.26512 10.922 5.3923 10.9747 5.5249 10.9747C5.65751 10.9747 5.78469 10.922 5.87846 10.8282L9.97473 6.73197L9.97402 9.76758C9.97402 9.83332 9.98697 9.89842 10.0121 9.95916C10.0373 10.0199 10.0742 10.0751 10.1207 10.1216C10.1671 10.1681 10.2223 10.2049 10.2831 10.2301C10.3438 10.2553 10.4089 10.2682 10.4747 10.2682C10.5404 10.2682 10.6055 10.2553 10.6662 10.2301C10.727 10.2049 10.7822 10.1681 10.8287 10.1216C10.8751 10.0751 10.912 10.0199 10.9372 9.95916C10.9623 9.89843 10.9753 9.83332 10.9753 9.76758V5.52494C10.9754 5.45917 10.9625 5.39404 10.9373 5.33326C10.9122 5.27248 10.8753 5.21726 10.8288 5.17076C10.7823 5.12425 10.7271 5.08738 10.6663 5.06225C10.6056 5.03712 10.5404 5.02423 10.4747 5.02431H6.23201C6.09923 5.02431 5.9719 5.07705 5.87801 5.17094C5.78412 5.26483 5.73138 5.39216 5.73138 5.52494C5.73138 5.65772 5.78412 5.78505 5.87801 5.87894C5.9719 5.97283 6.09923 6.02557 6.23201 6.02557L9.26762 6.02486L5.17135 10.1211C5.07758 10.2149 5.0249 10.3421 5.0249 10.4747C5.0249 10.6073 5.07758 10.7345 5.17135 10.8282Z" fill="#AAABB0"/>
</svg>
