<svg width="15" height="12" viewBox="0 0 15 12" fill="none" xmlns="http://www.w3.org/2000/svg">
<path fill-rule="evenodd" clip-rule="evenodd" d="M4.84826 8.12133C4.93617 8.19166 5.0554 8.23117 5.17972 8.23117C5.30404 8.23117 5.42327 8.19166 5.51118 8.12133L9.35143 5.04913L9.35076 7.32584C9.35076 7.37515 9.3629 7.42397 9.38649 7.46953C9.41008 7.51508 9.44465 7.55647 9.48823 7.59134C9.53181 7.6262 9.58355 7.65386 9.6405 7.67273C9.69744 7.6916 9.75847 7.70131 9.82011 7.70131C9.88174 7.70131 9.94277 7.6916 9.99972 7.67273C10.0567 7.65386 10.1084 7.6262 10.152 7.59134C10.1956 7.55647 10.2301 7.51508 10.2537 7.46953C10.2773 7.42397 10.2894 7.37515 10.2894 7.32584L10.2894 4.14386C10.2895 4.09453 10.2774 4.04568 10.2539 4.0001C10.2303 3.95451 10.1958 3.9131 10.1522 3.87822C10.1086 3.84334 10.0568 3.81569 9.99981 3.79684C9.94283 3.77799 9.88176 3.76832 9.82011 3.76838H5.84263C5.71815 3.76838 5.59878 3.80794 5.51076 3.87836C5.42274 3.94877 5.37329 4.04428 5.37329 4.14386C5.37329 4.24344 5.42274 4.33894 5.51076 4.40936C5.59878 4.47977 5.71815 4.51933 5.84263 4.51933L8.68852 4.5188L4.84826 7.591C4.76035 7.66133 4.71097 7.75671 4.71097 7.85617C4.71097 7.95562 4.76035 8.05101 4.84826 8.12133Z" fill="#AAABB0"/>
</svg>
