<svg width="15" height="11" viewBox="0 0 15 11" fill="none" xmlns="http://www.w3.org/2000/svg">
<path fill-rule="evenodd" clip-rule="evenodd" d="M4.84826 7.44433C4.93617 7.5088 5.0554 7.54501 5.17972 7.54501C5.30404 7.54501 5.42327 7.5088 5.51118 7.44433L9.35143 4.62815L9.35077 6.71513C9.35076 6.76033 9.3629 6.80508 9.38649 6.84684C9.41008 6.8886 9.44465 6.92654 9.48823 6.9585C9.53181 6.99046 9.58355 7.01582 9.6405 7.03311C9.69744 7.05041 9.75847 7.05931 9.82011 7.05931C9.88174 7.05931 9.94277 7.05041 9.99972 7.03311C10.0567 7.01582 10.1084 6.99046 10.152 6.9585C10.1956 6.92654 10.2301 6.8886 10.2537 6.84684C10.2773 6.80508 10.2894 6.76033 10.2894 6.71513L10.2894 3.79831C10.2895 3.7531 10.2774 3.70832 10.2539 3.66653C10.2303 3.62475 10.1958 3.58678 10.1522 3.55481C10.1086 3.52284 10.0568 3.49749 9.99981 3.48021C9.94283 3.46293 9.88176 3.45407 9.82011 3.45413L5.84263 3.45413C5.71815 3.45413 5.59877 3.49039 5.51076 3.55494C5.42274 3.61948 5.37329 3.70703 5.37329 3.79831C5.37329 3.8896 5.42274 3.97714 5.51076 4.04169C5.59878 4.10623 5.71815 4.1425 5.84263 4.1425L8.68852 4.14201L4.84826 6.9582C4.76036 7.02266 4.71097 7.1101 4.71097 7.20126C4.71097 7.29243 4.76035 7.37987 4.84826 7.44433Z" fill="#AAABB0"/>
</svg>
