<svg width="15" height="12" viewBox="0 0 15 12" fill="none" xmlns="http://www.w3.org/2000/svg">
<path fill-rule="evenodd" clip-rule="evenodd" d="M4.84826 8.12121C4.93617 8.19154 5.0554 8.23105 5.17972 8.23105C5.30404 8.23105 5.42327 8.19154 5.51118 8.12121L9.35143 5.04901L9.35076 7.32572C9.35076 7.37502 9.3629 7.42385 9.38649 7.4694C9.41008 7.51496 9.44465 7.55635 9.48823 7.59122C9.53181 7.62608 9.58355 7.65374 9.6405 7.67261C9.69744 7.69148 9.75847 7.70119 9.82011 7.70119C9.88174 7.70119 9.94277 7.69148 9.99972 7.67261C10.0567 7.65374 10.1084 7.62608 10.152 7.59122C10.1956 7.55635 10.2301 7.51496 10.2537 7.4694C10.2773 7.42385 10.2894 7.37502 10.2894 7.32572L10.2894 4.14374C10.2895 4.09441 10.2774 4.04556 10.2539 3.99997C10.2303 3.95439 10.1958 3.91298 10.1522 3.8781C10.1086 3.84322 10.0568 3.81556 9.99981 3.79672C9.94283 3.77787 9.88176 3.7682 9.82011 3.76826H5.84263C5.71815 3.76826 5.59878 3.80782 5.51076 3.87824C5.42274 3.94865 5.37329 4.04415 5.37329 4.14374C5.37329 4.24332 5.42274 4.33882 5.51076 4.40924C5.59878 4.47965 5.71815 4.51921 5.84263 4.51921L8.68852 4.51868L4.84826 7.59088C4.76035 7.66121 4.71097 7.75659 4.71097 7.85605C4.71097 7.9555 4.76035 8.05088 4.84826 8.12121Z" fill="#AAABB0"/>
</svg>
