<svg width="23" height="22" viewBox="0 0 23 22" fill="none" xmlns="http://www.w3.org/2000/svg">
<path d="M11.541 2.75C11.8148 2.75 12.0774 2.85865 12.271 3.05205C12.4646 3.24544 12.5734 3.50775 12.5734 3.78125V9.96875H18.7675C19.0413 9.96875 19.3039 10.0774 19.4975 10.2708C19.6911 10.4642 19.7999 10.7265 19.7999 11C19.7999 11.2735 19.6911 11.5358 19.4975 11.7292C19.3039 11.9226 19.0413 12.0313 18.7675 12.0313H12.5734V18.2188C12.5734 18.4923 12.4646 18.7546 12.271 18.948C12.0774 19.1414 11.8148 19.25 11.541 19.25C11.2673 19.25 11.0047 19.1414 10.8111 18.948C10.6175 18.7546 10.5087 18.4923 10.5087 18.2188V12.0313H4.31458C4.04078 12.0313 3.7782 11.9226 3.5846 11.7292C3.39099 11.5358 3.28223 11.2735 3.28223 11C3.28223 10.7265 3.39099 10.4642 3.5846 10.2708C3.7782 10.0774 4.04078 9.96875 4.31458 9.96875H10.5087V3.78125C10.5087 3.50775 10.6175 3.24544 10.8111 3.05205C11.0047 2.85865 11.2673 2.75 11.541 2.75V2.75Z" fill="#08A7F3"/>
</svg>
