<svg width="23" height="23" viewBox="0 0 23 23" fill="none" xmlns="http://www.w3.org/2000/svg">
<path d="M11.7883 3.0625C12.0639 3.0625 12.3281 3.17362 12.523 3.37141C12.7178 3.5692 12.8273 3.83747 12.8273 4.11719V10.4453H19.0611C19.3367 10.4453 19.6009 10.5564 19.7958 10.7542C19.9906 10.952 20.1001 11.2203 20.1001 11.5C20.1001 11.7797 19.9906 12.048 19.7958 12.2458C19.6009 12.4436 19.3367 12.5547 19.0611 12.5547H12.8273V18.8828C12.8273 19.1625 12.7178 19.4308 12.523 19.6286C12.3281 19.8264 12.0639 19.9375 11.7883 19.9375C11.5128 19.9375 11.2485 19.8264 11.0537 19.6286C10.8588 19.4308 10.7494 19.1625 10.7494 18.8828V12.5547H4.51553C4.23998 12.5547 3.97571 12.4436 3.78087 12.2458C3.58603 12.048 3.47656 11.7797 3.47656 11.5C3.47656 11.2203 3.58603 10.952 3.78087 10.7542C3.97571 10.5564 4.23998 10.4453 4.51553 10.4453H10.7494V4.11719C10.7494 3.83747 10.8588 3.5692 11.0537 3.37141C11.2485 3.17362 11.5128 3.0625 11.7883 3.0625V3.0625Z" fill="#08A7F3"/>
</svg>
