<svg width="23" height="19" viewBox="0 0 23 19" fill="none" xmlns="http://www.w3.org/2000/svg">
<path d="M11.541 2.70483C11.8148 2.70483 12.0774 2.79284 12.271 2.94948C12.4646 3.10612 12.5734 3.31858 12.5734 3.5401V8.55171H18.7675C19.0413 8.55171 19.3039 8.63971 19.4975 8.79636C19.6911 8.953 19.7999 9.16545 19.7999 9.38698C19.7999 9.60851 19.6911 9.82096 19.4975 9.97761C19.3039 10.1342 19.0413 10.2223 18.7675 10.2223H12.5734V15.2339C12.5734 15.4554 12.4646 15.6678 12.271 15.8245C12.0774 15.9811 11.8148 16.0691 11.541 16.0691C11.2673 16.0691 11.0047 15.9811 10.8111 15.8245C10.6175 15.6678 10.5087 15.4554 10.5087 15.2339V10.2223H4.31458C4.04078 10.2223 3.7782 10.1342 3.5846 9.97761C3.39099 9.82096 3.28223 9.60851 3.28223 9.38698C3.28223 9.16545 3.39099 8.953 3.5846 8.79636C3.7782 8.63971 4.04078 8.55171 4.31458 8.55171H10.5087V3.5401C10.5087 3.31858 10.6175 3.10612 10.8111 2.94948C11.0047 2.79284 11.2673 2.70483 11.541 2.70483V2.70483Z" fill="#6DA1E2"/>
</svg>
