<svg width="201" height="32" viewBox="0 0 201 32" fill="none" xmlns="http://www.w3.org/2000/svg">
<mask id="path-1-inside-1_77_309" fill="white">
<path fill-rule="evenodd" clip-rule="evenodd" d="M4 28V32H0C2.26068 31.1667 3.13787 30.2923 4 28ZM197 28V32H201C198.739 31.1667 197.862 30.2923 197 28Z"/>
</mask>
<path fill-rule="evenodd" clip-rule="evenodd" d="M4 28V32H0C2.26068 31.1667 3.13787 30.2923 4 28ZM197 28V32H201C198.739 31.1667 197.862 30.2923 197 28Z" fill="#1E1E1E"/>
<path d="M4 32V33H5V32H4ZM4 28H5L3.06401 27.648L4 28ZM0 32L-0.34587 31.0617L0 33V32ZM197 32H196V33H197V32ZM197 28L197.936 27.648L196 28H197ZM201 32V33L201.346 31.0617L201 32ZM5 32V28H3V32H5ZM0 33H4V31H0V33ZM3.06401 27.648C2.65456 28.7367 2.28154 29.3761 1.81755 29.8398C1.35475 30.3023 0.724108 30.6673 -0.34587 31.0617L0.34587 32.9383C1.53657 32.4994 2.47486 32.0105 3.23135 31.2544C3.98666 30.4996 4.48331 29.5557 4.93599 28.352L3.06401 27.648ZM198 32V28H196V32H198ZM201 31H197V33H201V31ZM196.064 28.352C196.517 29.5557 197.013 30.4996 197.769 31.2544C198.525 32.0105 199.463 32.4994 200.654 32.9383L201.346 31.0617C200.276 30.6673 199.645 30.3023 199.182 29.8398C198.718 29.3761 198.345 28.7367 197.936 27.648L196.064 28.352Z" fill="#363636" mask="url(#path-1-inside-1_77_309)"/>
</svg>
