<svg width="16" height="13" viewBox="0 0 16 13" fill="none" xmlns="http://www.w3.org/2000/svg">
<path d="M14.7102 4.65139C14.7108 5.11437 14.5 5.561 14.1187 5.90459C13.7375 6.24817 13.213 6.4642 12.647 6.51073C12.0811 6.55726 11.5141 6.43097 11.0561 6.15638C10.5981 5.88179 10.2818 5.47849 10.1686 5.02477H9.87503C9.663 5.02488 9.45756 5.08475 9.29364 5.1942C9.12972 5.30366 9.01743 5.45595 8.97588 5.62517L8.49878 7.5578C8.41569 7.89613 8.19126 8.2006 7.86361 8.4195C7.53595 8.6384 7.12529 8.75822 6.7014 8.7586H6.40688C6.29319 9.21191 5.97676 9.61471 5.51893 9.88891C5.06109 10.1631 4.49448 10.2892 3.92893 10.2427C3.36338 10.1962 2.83919 9.98042 2.45799 9.63723C2.07678 9.29404 1.86572 8.84787 1.86572 8.38522C1.86572 7.92257 2.07678 7.4764 2.45799 7.13321C2.83919 6.79002 3.36338 6.57426 3.92893 6.52776C4.49448 6.48126 5.06109 6.60733 5.51893 6.88153C5.97676 7.15574 6.29319 7.55853 6.40688 8.01184H6.70048C6.9125 8.01173 7.11794 7.95186 7.28186 7.84241C7.44579 7.73295 7.55807 7.58066 7.59963 7.41144L8.07581 5.47881C8.15892 5.14036 8.38349 4.83578 8.71134 4.61687C9.03918 4.39795 9.45006 4.27821 9.87411 4.27801H10.1686C10.2818 3.82429 10.5981 3.42099 11.0561 3.1464C11.5141 2.87181 12.0811 2.74552 12.647 2.79205C13.213 2.83858 13.7375 3.0546 14.1187 3.39819C14.5 3.74178 14.7108 4.18841 14.7102 4.65139ZM13.7928 4.65139C13.7928 4.50429 13.7572 4.35863 13.688 4.22273C13.6188 4.08682 13.5175 3.96334 13.3897 3.85932C13.2619 3.75531 13.1101 3.6728 12.9432 3.61651C12.7762 3.56021 12.5972 3.53124 12.4165 3.53124C12.2358 3.53124 12.0568 3.56021 11.8898 3.61651C11.7229 3.6728 11.5711 3.75531 11.4433 3.85932C11.3155 3.96334 11.2142 4.08682 11.145 4.22273C11.0758 4.35863 11.0403 4.50429 11.0403 4.65139C11.0403 4.94847 11.1852 5.23339 11.4433 5.44345C11.7014 5.65352 12.0515 5.77154 12.4165 5.77154C12.7815 5.77154 13.1316 5.65352 13.3897 5.44345C13.6478 5.23339 13.7928 4.94847 13.7928 4.65139ZM4.159 9.50537C4.52401 9.50537 4.87406 9.38735 5.13216 9.17729C5.39026 8.96722 5.53525 8.6823 5.53525 8.38522C5.53525 8.08814 5.39026 7.80322 5.13216 7.59315C4.87406 7.38309 4.52401 7.26507 4.159 7.26507C3.794 7.26507 3.44395 7.38309 3.18585 7.59315C2.92775 7.80322 2.78275 8.08814 2.78275 8.38522C2.78275 8.6823 2.92775 8.96722 3.18585 9.17729C3.44395 9.38735 3.794 9.50537 4.159 9.50537Z" fill="#AAABB0"/>
</svg>
