<svg width="16" height="16" viewBox="0 0 16 16" fill="none" xmlns="http://www.w3.org/2000/svg">
<path d="M15 5.50261C15.0006 6.12261 14.7709 6.72072 14.3553 7.18084C13.9397 7.64095 13.368 7.93025 12.7512 7.99256C12.1343 8.05486 11.5163 7.88574 11.0171 7.51803C10.5179 7.15031 10.1732 6.61023 10.0498 6.00263H9.72981C9.49871 6.00277 9.27479 6.08294 9.09612 6.22952C8.91745 6.3761 8.79507 6.58004 8.74977 6.80666L8.22975 9.39475C8.13919 9.84782 7.89457 10.2556 7.53744 10.5487C7.18032 10.8418 6.73271 11.0023 6.27068 11.0028H5.94967C5.82576 11.6099 5.48086 12.1493 4.98184 12.5165C4.48282 12.8837 3.86523 13.0525 3.24881 12.9902C2.63239 12.928 2.06104 12.639 1.64555 12.1794C1.23005 11.7198 1 11.1224 1 10.5028C1 9.88323 1.23005 9.28574 1.64555 8.82615C2.06104 8.36657 2.63239 8.07763 3.24881 8.01536C3.86523 7.95309 4.48282 8.12192 4.98184 8.48912C5.48086 8.85632 5.82576 9.39573 5.94967 10.0028H6.26968C6.50078 10.0026 6.7247 9.92246 6.90337 9.77588C7.08204 9.6293 7.20442 9.42536 7.24972 9.19874L7.76874 6.61065C7.85933 6.15741 8.1041 5.74954 8.46143 5.45638C8.81877 5.16322 9.26661 5.00287 9.72881 5.00259H10.0498C10.1732 4.39499 10.5179 3.85491 11.0171 3.48719C11.5163 3.11947 12.1343 2.95035 12.7512 3.01266C13.368 3.07497 13.9397 3.36427 14.3553 3.82438C14.7709 4.2845 15.0006 4.88261 15 5.50261ZM14 5.50261C14 5.30562 13.9612 5.11056 13.8858 4.92856C13.8104 4.74657 13.6999 4.5812 13.5606 4.44191C13.4213 4.30262 13.2559 4.19212 13.074 4.11674C12.892 4.04135 12.6969 4.00255 12.4999 4.00255C12.3029 4.00255 12.1079 4.04135 11.9259 4.11674C11.7439 4.19212 11.5785 4.30262 11.4392 4.44191C11.2999 4.5812 11.1894 4.74657 11.114 4.92856C11.0387 5.11056 10.9999 5.30562 10.9999 5.50261C10.9999 5.90045 11.1579 6.28199 11.4392 6.56331C11.7205 6.84462 12.1021 7.00266 12.4999 7.00266C12.8977 7.00266 13.2793 6.84462 13.5606 6.56331C13.8419 6.28199 14 5.90045 14 5.50261ZM3.49958 12.0028C3.89742 12.0028 4.27896 11.8448 4.56028 11.5635C4.84159 11.2822 4.99964 10.9006 4.99964 10.5028C4.99964 10.105 4.84159 9.72341 4.56028 9.44209C4.27896 9.16078 3.89742 9.00274 3.49958 9.00274C3.10174 9.00274 2.7202 9.16078 2.43888 9.44209C2.15757 9.72341 1.99953 10.105 1.99953 10.5028C1.99953 10.9006 2.15757 11.2822 2.43888 11.5635C2.7202 11.8448 3.10174 12.0028 3.49958 12.0028Z" fill="#AAABB0"/>
</svg>
