<svg width="16" height="13" viewBox="0 0 16 13" fill="none" xmlns="http://www.w3.org/2000/svg">
<path d="M14.8445 4.8688C14.8451 5.33177 14.6343 5.77841 14.253 6.12199C13.8718 6.46558 13.3472 6.68161 12.7813 6.72814C12.2154 6.77466 11.6483 6.64838 11.1904 6.37379C10.7324 6.0992 10.4161 5.6959 10.3029 5.24218H10.0093C9.79728 5.24228 9.59184 5.30215 9.42792 5.41161C9.264 5.52107 9.15171 5.67335 9.11015 5.84258L8.63305 7.77521C8.54997 8.11353 8.32554 8.41801 7.99788 8.63691C7.67023 8.85581 7.25957 8.97563 6.83567 8.97601H6.54115C6.42747 9.42931 6.11104 9.83211 5.6532 10.1063C5.19537 10.3805 4.62875 10.5066 4.06321 10.4601C3.49766 10.4136 2.97347 10.1978 2.59227 9.85464C2.21106 9.51145 2 9.06528 2 8.60263C2 8.13998 2.21106 7.69381 2.59227 7.35062C2.97347 7.00743 3.49766 6.79167 4.06321 6.74517C4.62875 6.69867 5.19537 6.82474 5.6532 7.09894C6.11104 7.37314 6.42747 7.77594 6.54115 8.22924H6.83475C7.04678 8.22914 7.25222 8.16927 7.41614 8.05981C7.58006 7.95036 7.69235 7.79807 7.7339 7.62884L8.21009 5.69621C8.2932 5.35776 8.51777 5.05319 8.84561 4.83428C9.17346 4.61536 9.58433 4.49562 10.0084 4.49541H10.3029C10.4161 4.04169 10.7324 3.6384 11.1904 3.36381C11.6483 3.08922 12.2154 2.96293 12.7813 3.00946C13.3472 3.05598 13.8718 3.27201 14.253 3.6156C14.6343 3.95918 14.8451 4.40582 14.8445 4.8688ZM13.927 4.8688C13.927 4.7217 13.8914 4.57604 13.8223 4.44013C13.7531 4.30423 13.6517 4.18075 13.5239 4.07673C13.3961 3.97272 13.2444 3.89021 13.0774 3.83391C12.9105 3.77762 12.7315 3.74865 12.5508 3.74865C12.37 3.74865 12.1911 3.77762 12.0241 3.83391C11.8571 3.89021 11.7054 3.97272 11.5776 4.07673C11.4498 4.18075 11.3485 4.30423 11.2793 4.44013C11.2101 4.57604 11.1745 4.7217 11.1745 4.8688C11.1745 5.16588 11.3195 5.45079 11.5776 5.66086C11.8357 5.87093 12.1858 5.98895 12.5508 5.98895C12.9158 5.98895 13.2658 5.87093 13.5239 5.66086C13.782 5.45079 13.927 5.16588 13.927 4.8688ZM4.29328 9.72278C4.65829 9.72278 5.00834 9.60476 5.26644 9.39469C5.52453 9.18462 5.66953 8.89971 5.66953 8.60263C5.66953 8.30555 5.52453 8.02063 5.26644 7.81056C5.00834 7.60049 4.65829 7.48248 4.29328 7.48248C3.92828 7.48248 3.57822 7.60049 3.32013 7.81056C3.06203 8.02063 2.91703 8.30555 2.91703 8.60263C2.91703 8.89971 3.06203 9.18462 3.32013 9.39469C3.57822 9.60476 3.92828 9.72278 4.29328 9.72278Z" fill="#AAABB0"/>
</svg>
