<svg width="16" height="13" viewBox="0 0 16 13" fill="none" xmlns="http://www.w3.org/2000/svg">
<path d="M14.1228 4.58291C14.1234 5.04588 13.9126 5.49252 13.5313 5.83611C13.1501 6.17969 12.6256 6.39572 12.0596 6.44225C11.4937 6.48878 10.9267 6.36249 10.4687 6.0879C10.0107 5.81331 9.69442 5.41001 9.58122 4.95629H9.28762C9.0756 4.95639 8.87016 5.01627 8.70624 5.12572C8.54232 5.23518 8.43003 5.38747 8.38847 5.55669L7.91137 7.48932C7.82829 7.82765 7.60386 8.13212 7.2762 8.35102C6.94855 8.56992 6.53789 8.68974 6.11399 8.69012H5.81948C5.70579 9.14343 5.38936 9.54622 4.93152 9.82043C4.47369 10.0946 3.90707 10.2207 3.34153 10.1742C2.77598 10.1277 2.25179 9.91194 1.87059 9.56875C1.48938 9.22556 1.27832 8.77939 1.27832 8.31674C1.27832 7.85409 1.48938 7.40792 1.87059 7.06473C2.25179 6.72154 2.77598 6.50578 3.34153 6.45928C3.90707 6.41278 4.47369 6.53885 4.93152 6.81305C5.38936 7.08725 5.70579 7.49005 5.81948 7.94336H6.11308C6.3251 7.94325 6.53054 7.88338 6.69446 7.77392C6.85838 7.66447 6.97067 7.51218 7.01223 7.34296L7.48841 5.41032C7.57152 5.07187 7.79609 4.7673 8.12393 4.54839C8.45178 4.32947 8.86265 4.20973 9.28671 4.20952H9.58122C9.69442 3.75581 10.0107 3.35251 10.4687 3.07792C10.9267 2.80333 11.4937 2.67704 12.0596 2.72357C12.6256 2.7701 13.1501 2.98612 13.5313 3.32971C13.9126 3.6733 14.1234 4.11993 14.1228 4.58291ZM13.2053 4.58291C13.2053 4.43581 13.1698 4.29015 13.1006 4.15424C13.0314 4.01834 12.9301 3.89486 12.8023 3.79084C12.6745 3.68683 12.5227 3.60432 12.3558 3.54802C12.1888 3.49173 12.0098 3.46276 11.8291 3.46276C11.6484 3.46276 11.4694 3.49173 11.3024 3.54802C11.1355 3.60432 10.9837 3.68683 10.8559 3.79084C10.7281 3.89486 10.6268 4.01834 10.5576 4.15424C10.4884 4.29015 10.4528 4.43581 10.4528 4.58291C10.4528 4.87999 10.5978 5.1649 10.8559 5.37497C11.114 5.58504 11.4641 5.70306 11.8291 5.70306C12.1941 5.70306 12.5442 5.58504 12.8023 5.37497C13.0604 5.1649 13.2053 4.87999 13.2053 4.58291ZM3.5716 9.43689C3.93661 9.43689 4.28666 9.31887 4.54476 9.1088C4.80285 8.89874 4.94785 8.61382 4.94785 8.31674C4.94785 8.01966 4.80285 7.73474 4.54476 7.52467C4.28666 7.3146 3.93661 7.19659 3.5716 7.19659C3.2066 7.19659 2.85654 7.3146 2.59845 7.52467C2.34035 7.73474 2.19535 8.01966 2.19535 8.31674C2.19535 8.61382 2.34035 8.89874 2.59845 9.1088C2.85654 9.31887 3.2066 9.43689 3.5716 9.43689Z" fill="#AAABB0"/>
</svg>
