<svg width="16" height="13" viewBox="0 0 16 13" fill="none" xmlns="http://www.w3.org/2000/svg">
<path d="M14.7102 4.78628C14.7108 5.24925 14.5 5.69589 14.1187 6.03947C13.7375 6.38306 13.213 6.59909 12.647 6.64562C12.0811 6.69215 11.5141 6.56586 11.0561 6.29127C10.5981 6.01668 10.2818 5.61338 10.1686 5.15966H9.87503C9.663 5.15976 9.45756 5.21963 9.29364 5.32909C9.12972 5.43855 9.01743 5.59084 8.97588 5.76006L8.49878 7.69269C8.41569 8.03101 8.19126 8.33549 7.86361 8.55439C7.53595 8.77329 7.12529 8.89311 6.7014 8.89349H6.40688C6.29319 9.34679 5.97676 9.74959 5.51893 10.0238C5.06109 10.298 4.49448 10.4241 3.92893 10.3776C3.36338 10.3311 2.83919 10.1153 2.45799 9.77212C2.07678 9.42893 1.86572 8.98276 1.86572 8.52011C1.86572 8.05746 2.07678 7.61129 2.45799 7.2681C2.83919 6.92491 3.36338 6.70915 3.92893 6.66265C4.49448 6.61615 5.06109 6.74222 5.51893 7.01642C5.97676 7.29062 6.29319 7.69342 6.40688 8.14672H6.70048C6.9125 8.14662 7.11794 8.08675 7.28186 7.97729C7.44579 7.86784 7.55807 7.71555 7.59963 7.54632L8.07581 5.61369C8.15892 5.27524 8.38349 4.97067 8.71134 4.75176C9.03918 4.53284 9.45006 4.4131 9.87411 4.41289H10.1686C10.2818 3.95918 10.5981 3.55588 11.0561 3.28129C11.5141 3.0067 12.0811 2.88041 12.647 2.92694C13.213 2.97347 13.7375 3.18949 14.1187 3.53308C14.5 3.87667 14.7108 4.3233 14.7102 4.78628ZM13.7928 4.78628C13.7928 4.63918 13.7572 4.49352 13.688 4.35761C13.6188 4.22171 13.5175 4.09823 13.3897 3.99421C13.2619 3.8902 13.1101 3.80769 12.9432 3.75139C12.7762 3.6951 12.5972 3.66613 12.4165 3.66613C12.2358 3.66613 12.0568 3.6951 11.8898 3.75139C11.7229 3.80769 11.5711 3.8902 11.4433 3.99421C11.3155 4.09823 11.2142 4.22171 11.145 4.35761C11.0758 4.49352 11.0403 4.63918 11.0403 4.78628C11.0403 5.08336 11.1852 5.36827 11.4433 5.57834C11.7014 5.78841 12.0515 5.90643 12.4165 5.90643C12.7815 5.90643 13.1316 5.78841 13.3897 5.57834C13.6478 5.36827 13.7928 5.08336 13.7928 4.78628ZM4.159 9.64026C4.52401 9.64026 4.87406 9.52224 5.13216 9.31217C5.39026 9.10211 5.53525 8.81719 5.53525 8.52011C5.53525 8.22303 5.39026 7.93811 5.13216 7.72804C4.87406 7.51797 4.52401 7.39996 4.159 7.39996C3.794 7.39996 3.44395 7.51797 3.18585 7.72804C2.92775 7.93811 2.78275 8.22303 2.78275 8.52011C2.78275 8.81719 2.92775 9.10211 3.18585 9.31217C3.44395 9.52224 3.794 9.64026 4.159 9.64026Z" fill="#AAABB0"/>
</svg>
