<svg width="17" height="16" viewBox="0 0 17 16" fill="none" xmlns="http://www.w3.org/2000/svg">
<path d="M8.76564 0.25C8.90565 0.24991 9.04289 0.289014 9.16183 0.362887C9.28077 0.43676 9.37666 0.542452 9.43864 0.668L11.3206 4.483L15.5306 5.095C15.6691 5.11511 15.7992 5.17355 15.9062 5.26372C16.0132 5.35388 16.0928 5.47218 16.1361 5.60523C16.1793 5.73829 16.1845 5.8808 16.1511 6.01665C16.1176 6.1525 16.0468 6.27628 15.9466 6.374L12.9006 9.344L13.6196 13.536C13.643 13.6738 13.6273 13.8154 13.5745 13.9449C13.5217 14.0743 13.4338 14.1865 13.3208 14.2687C13.2077 14.3509 13.0739 14.3999 12.9345 14.4102C12.7951 14.4205 12.6556 14.3917 12.5316 14.327L8.76564 12.347L4.99964 14.327C4.87582 14.392 4.7363 14.4211 4.59683 14.411C4.45735 14.4009 4.32348 14.352 4.21032 14.2699C4.09716 14.1877 4.00923 14.0755 3.95645 13.946C3.90367 13.8165 3.88815 13.6749 3.91164 13.537L4.63164 9.343L1.58364 6.374C1.4832 6.27632 1.41214 6.15247 1.37849 6.01647C1.34484 5.88047 1.34996 5.73777 1.39326 5.60453C1.43656 5.47129 1.51632 5.35284 1.62349 5.26261C1.73067 5.17238 1.86097 5.11397 1.99964 5.094L6.20964 4.483L8.09264 0.668C8.15462 0.542452 8.2505 0.43676 8.36944 0.362887C8.48838 0.289014 8.62562 0.24991 8.76564 0.25ZM8.76564 2.695L7.38064 5.5C7.32685 5.6089 7.24742 5.70311 7.14918 5.77453C7.05094 5.84595 6.93682 5.89244 6.81664 5.91L3.71964 6.36L5.95964 8.544C6.04679 8.62886 6.11199 8.73365 6.14962 8.84933C6.18725 8.96501 6.19618 9.0881 6.17564 9.208L5.64764 12.292L8.41664 10.836C8.52427 10.7794 8.64404 10.7499 8.76564 10.7499C8.88723 10.7499 9.00701 10.7794 9.11464 10.836L11.8846 12.292L11.3546 9.208C11.3341 9.0881 11.343 8.96501 11.3807 8.84933C11.4183 8.73365 11.4835 8.62886 11.5706 8.544L13.8106 6.361L10.7146 5.911C10.5945 5.89344 10.4803 5.84695 10.3821 5.77553C10.2838 5.70411 10.2044 5.6099 10.1506 5.501L8.76564 2.695Z" fill="#8B949E"/>
</svg>
