<svg width="18" height="18" viewBox="0 0 18 18" fill="none" xmlns="http://www.w3.org/2000/svg">
<g opacity="0.7" clip-path="url(#clip0_60_815)">
<path d="M6 9C6 9.79565 6.31607 10.5587 6.87868 11.1213C7.44129 11.6839 8.20435 12 9 12C9.79565 12 10.5587 11.6839 11.1213 11.1213C11.6839 10.5587 12 9.79565 12 9C12 8.20435 11.6839 7.44129 11.1213 6.87868C10.5587 6.31607 9.79565 6 9 6C8.20435 6 7.44129 6.31607 6.87868 6.87868C6.31607 7.44129 6 8.20435 6 9Z" stroke="white" stroke-width="1.5" stroke-linecap="round" stroke-linejoin="round"/>
<path d="M12 8.99988V10.1249C12 10.6222 12.1975 11.0991 12.5492 11.4507C12.9008 11.8023 13.3777 11.9999 13.875 11.9999C14.3723 11.9999 14.8492 11.8023 15.2008 11.4507C15.5525 11.0991 15.75 10.6222 15.75 10.1249V8.99988C15.7519 7.54946 15.2865 6.13702 14.4228 4.97178C13.5591 3.80654 12.3431 2.9505 10.9548 2.53046C9.56652 2.11042 8.07987 2.14873 6.71508 2.63971C5.35028 3.13069 4.17993 4.04822 3.3774 5.25639C2.57488 6.46456 2.18285 7.8991 2.25941 9.3475C2.33597 10.7959 2.87704 12.1811 3.80246 13.298C4.72789 14.4148 5.98844 15.2038 7.39739 15.5482C8.80634 15.8926 10.2887 15.7739 11.625 15.2099" stroke="white" stroke-width="1.5" stroke-linecap="round" stroke-linejoin="round"/>
</g>
<defs>
<clipPath id="clip0_60_815">
<rect width="18" height="18" fill="white"/>
</clipPath>
</defs>
</svg>
