<svg width="14" height="14" viewBox="0 0 14 14" fill="none" xmlns="http://www.w3.org/2000/svg">
<g clip-path="url(#clip0_58_711)">
<path d="M2.9165 7H11.0832" stroke="#5F5F5F" stroke-width="1.16667" stroke-linecap="round" stroke-linejoin="round"/>
<path d="M9.33333 3.79172C9.20106 3.53503 8.89791 3.30852 8.47379 3.14947C8.04968 2.99043 7.52988 2.90834 7 2.91672H6.41667C5.87518 2.91672 5.35588 3.13183 4.97299 3.51471C4.5901 3.8976 4.375 4.4169 4.375 4.95839C4.375 5.49987 4.5901 6.01918 4.97299 6.40206C5.35588 6.78495 5.87518 7.00005 6.41667 7.00005H7.58333C8.12482 7.00005 8.64412 7.21516 9.02701 7.59805C9.4099 7.98093 9.625 8.50024 9.625 9.04172C9.625 9.58321 9.4099 10.1025 9.02701 10.4854C8.64412 10.8683 8.12482 11.0834 7.58333 11.0834H6.70833C6.17845 11.0918 5.65866 11.0097 5.23454 10.8506C4.81042 10.6916 4.50727 10.4651 4.375 10.2084" stroke="#5F5F5F" stroke-width="1.16667" stroke-linecap="round" stroke-linejoin="round"/>
</g>
<defs>
<clipPath id="clip0_58_711">
<rect width="14" height="14" fill="white"/>
</clipPath>
</defs>
</svg>
