<svg width="28" height="32" viewBox="0 0 28 32" fill="none" xmlns="http://www.w3.org/2000/svg">
<g clip-path="url(#clip0_79_766)">
<path d="M1.88229 16.806C1.88229 17.7463 1.80706 18.0526 1.61362 18.2783C1.39832 18.4722 1.11882 18.5794 0.829102 18.5792L0.90433 19.1166C1.35349 19.1226 1.78933 18.964 2.12947 18.6706C2.31249 18.4474 2.44868 18.1896 2.52992 17.9127C2.61116 17.6357 2.63579 17.3452 2.60233 17.0586V13.5013H1.88229V16.7845V16.806Z" fill="#4E4E4E"/>
<path d="M7.25242 16.3821C7.25242 16.7851 7.25242 17.1451 7.28465 17.4568H6.64522L6.60223 16.8174C6.46849 17.0436 6.27721 17.2304 6.04787 17.3588C5.81852 17.4871 5.55927 17.5525 5.29649 17.5481C4.67317 17.5481 3.93164 17.2096 3.93164 15.8286V13.5342H4.65168V15.6836C4.65168 16.4305 4.88274 16.9302 5.53292 16.9302C5.66669 16.9316 5.79939 16.9063 5.92326 16.8558C6.04713 16.8053 6.15965 16.7305 6.25425 16.6359C6.34884 16.5414 6.42359 16.4288 6.47412 16.305C6.52465 16.1811 6.54994 16.0484 6.5485 15.9146V13.5073H7.26853V16.3606L7.25242 16.3821Z" fill="#4E4E4E"/>
<path d="M8.6172 14.8126C8.6172 14.3128 8.6172 13.9045 8.58496 13.5337H9.22977L9.26201 14.2054C9.40567 13.9627 9.61249 13.7636 9.86042 13.6292C10.1084 13.4948 10.3881 13.4302 10.6698 13.4424C11.6263 13.4424 12.3464 14.243 12.3464 15.4359C12.3464 16.8437 11.4812 17.5423 10.5463 17.5423C10.307 17.553 10.0689 17.5017 9.85525 17.3934C9.64157 17.2852 9.45944 17.1236 9.32649 16.9243V19.0737H8.6172V14.8287V14.8126ZM9.32649 15.8604C9.32844 15.9579 9.33923 16.055 9.35874 16.1506C9.4197 16.3892 9.55849 16.6006 9.75313 16.7514C9.94777 16.9023 10.1872 16.9839 10.4334 16.9834C11.1911 16.9834 11.6371 16.3655 11.6371 15.4681C11.6371 14.6836 11.2179 14.0119 10.4603 14.0119C10.1605 14.0365 9.87987 14.1696 9.67115 14.3862C9.46242 14.6028 9.33988 14.8882 9.32649 15.1887V15.8604Z" fill="#4E4E4E"/>
<path d="M13.6293 13.53L14.4944 15.846C14.5857 16.1039 14.6824 16.4156 14.7469 16.6466C14.8222 16.4102 14.9028 16.1093 14.9995 15.8299L15.784 13.53H16.5416L15.467 16.3242C14.9296 17.6676 14.6018 18.3607 14.1075 18.7799C13.8585 19.0073 13.5549 19.1665 13.2262 19.242L13.0489 18.6402C13.2787 18.5646 13.4921 18.4461 13.6776 18.2909C13.9398 18.0773 14.1478 17.8048 14.2848 17.4956C14.3141 17.4421 14.3341 17.3839 14.3439 17.3237C14.3378 17.2588 14.3215 17.1954 14.2956 17.1356L12.834 13.5193H13.6185L13.6293 13.53Z" fill="#4E4E4E"/>
<path d="M18.4527 12.4028V13.5312H19.4844V14.0686H18.4527V16.1857C18.4527 16.6693 18.5924 16.9487 18.9901 16.9487C19.1313 16.9511 19.2722 16.9348 19.4092 16.9004L19.4414 17.4377C19.236 17.5089 19.0193 17.5417 18.802 17.5345C18.6581 17.5435 18.514 17.5212 18.3795 17.4693C18.245 17.4173 18.1233 17.3369 18.0228 17.2335C17.804 16.9408 17.7041 16.576 17.7434 16.2126V14.0632H17.1309V13.5259H17.7542V12.5694L18.4527 12.4028Z" fill="#4E4E4E"/>
<path d="M20.8111 15.6192C20.7965 15.8015 20.8216 15.9847 20.8848 16.1562C20.948 16.3278 21.0476 16.4836 21.1769 16.6129C21.3062 16.7421 21.462 16.8418 21.6335 16.905C21.8051 16.9681 21.9883 16.9933 22.1705 16.9787C22.5391 16.9869 22.9053 16.9174 23.2452 16.7745L23.3688 17.3119C22.9517 17.4837 22.5032 17.566 22.0523 17.5537C21.7895 17.5717 21.5258 17.5326 21.2795 17.4391C21.0331 17.3456 20.8099 17.2 20.6251 17.0122C20.4403 16.8243 20.2984 16.5987 20.209 16.3509C20.1196 16.103 20.0848 15.8388 20.1071 15.5762C20.1071 14.3941 20.8111 13.4591 21.961 13.4591C23.2506 13.4591 23.573 14.5875 23.573 15.3076C23.5799 15.4185 23.5799 15.5298 23.573 15.6407H20.795L20.8111 15.6192ZM22.9175 15.0819C22.9382 14.9382 22.9279 14.7918 22.8872 14.6524C22.8466 14.5131 22.7766 14.3841 22.6819 14.2741C22.5871 14.1641 22.47 14.0757 22.3382 14.0148C22.2064 13.954 22.0631 13.922 21.918 13.9212C21.6228 13.9426 21.3461 14.0735 21.1424 14.2882C20.9386 14.5029 20.8224 14.7859 20.8164 15.0819H22.9175Z" fill="#4E4E4E"/>
<path d="M24.6651 14.752C24.6651 14.2899 24.6651 13.8922 24.6328 13.5269H25.2776V14.2953H25.3099C25.3775 14.0581 25.5174 13.8479 25.71 13.6938C25.9025 13.5398 26.1383 13.4495 26.3845 13.4355C26.4523 13.4266 26.521 13.4266 26.5887 13.4355V14.1072C26.5066 14.0977 26.4237 14.0977 26.3416 14.1072C26.0976 14.1166 25.8655 14.2146 25.6885 14.3827C25.5115 14.5508 25.4017 14.7775 25.3797 15.0207C25.3596 15.1306 25.3488 15.2421 25.3475 15.3538V17.4441H24.6382V14.7574L24.6651 14.752Z" fill="#4E4E4E"/>
<path d="M24.3497 2.73722C24.3718 3.09822 24.2859 3.4576 24.103 3.7696C23.9201 4.08161 23.6485 4.3321 23.3227 4.48918C22.9969 4.64626 22.6318 4.70281 22.2738 4.65163C21.9157 4.60044 21.581 4.44384 21.3123 4.20177C21.0436 3.95971 20.8531 3.64313 20.7649 3.29238C20.6767 2.94162 20.695 2.57256 20.8173 2.23222C20.9397 1.89187 21.1605 1.59565 21.4518 1.38127C21.7431 1.1669 22.0916 1.04409 22.4529 1.02848C22.6898 1.01544 22.927 1.04936 23.1507 1.1283C23.3745 1.20723 23.5804 1.32962 23.7567 1.48842C23.9329 1.64722 24.0761 1.8393 24.1779 2.05362C24.2797 2.26793 24.3381 2.50026 24.3497 2.73722Z" fill="#767677"/>
<path d="M13.7246 23.7812C8.88856 23.7812 4.63816 22.0455 2.44043 19.4824C3.29315 21.7882 4.8318 23.7775 6.84926 25.1824C8.86671 26.5873 11.2662 27.3405 13.7246 27.3405C16.1831 27.3405 18.5825 26.5873 20.6 25.1824C22.6174 23.7775 24.1561 21.7882 25.0088 19.4824C22.8165 22.0455 18.5822 23.7812 13.7246 23.7812Z" fill="#F37726"/>
<path d="M13.7246 7.11387C18.5607 7.11387 22.8111 8.84949 25.0088 11.4126C24.1561 9.10679 22.6174 7.11754 20.6 5.71263C18.5825 4.30771 16.1831 3.55457 13.7246 3.55457C11.2662 3.55457 8.86671 4.30771 6.84926 5.71263C4.8318 7.11754 3.29315 9.10679 2.44043 11.4126C4.63816 8.84412 8.86707 7.11387 13.7246 7.11387Z" fill="#F37726"/>
<path d="M7.06687 28.7692C7.09524 29.2239 6.9876 29.6767 6.75768 30.07C6.52775 30.4633 6.18594 30.7793 5.77581 30.9776C5.36568 31.176 4.90578 31.2477 4.45472 31.1838C4.00366 31.1198 3.58184 30.923 3.24303 30.6184C2.90421 30.3139 2.66373 29.9154 2.55222 29.4737C2.4407 29.0319 2.46322 28.567 2.61688 28.1381C2.77054 27.7093 3.0484 27.3358 3.41506 27.0654C3.78172 26.795 4.22057 26.6399 4.6757 26.6198C4.97385 26.6039 5.27222 26.6468 5.55378 26.7462C5.83532 26.8456 6.09453 26.9995 6.31658 27.1991C6.53864 27.3987 6.7192 27.6401 6.84793 27.9095C6.97667 28.1789 7.05107 28.471 7.06687 28.7692Z" fill="#9E9E9E"/>
<path d="M2.9902 6.52982C2.72962 6.53701 2.47272 6.467 2.25182 6.32859C2.03092 6.19017 1.85588 5.98952 1.74871 5.75189C1.64154 5.51425 1.60703 5.25024 1.64951 4.99304C1.69199 4.73584 1.80957 4.49694 1.98747 4.30639C2.16537 4.11584 2.39563 3.98215 2.64931 3.92212C2.90299 3.86209 3.16875 3.87841 3.41318 3.96903C3.65761 4.05964 3.86979 4.2205 4.02303 4.43139C4.17628 4.64227 4.26375 4.89376 4.27445 5.15422C4.28463 5.50641 4.15548 5.84841 3.91504 6.10595C3.67459 6.3635 3.34226 6.51582 2.9902 6.52982Z" fill="#616262"/>
</g>
<defs>
<clipPath id="clip0_79_766">
<rect width="26.5564" height="30.7812" fill="white" transform="translate(0.50293 0.609375)"/>
</clipPath>
</defs>
</svg>
