<svg width="16" height="16" viewBox="0 0 16 16" fill="none" xmlns="http://www.w3.org/2000/svg">
<path d="M3.72001 3.72006C3.86064 3.57961 4.05126 3.50072 4.25001 3.50072C4.44876 3.50072 4.63939 3.57961 4.78001 3.72006L8.00001 6.94006L11.22 3.72006C11.3117 3.62133 11.4283 3.54916 11.5575 3.51115C11.6868 3.47313 11.8239 3.47068 11.9544 3.50406C12.0849 3.53743 12.204 3.60539 12.2992 3.70078C12.3943 3.79617 12.462 3.91545 12.495 4.04606C12.5284 4.17643 12.5261 4.31341 12.4883 4.44257C12.4504 4.57173 12.3785 4.68832 12.28 4.78006L9.06001 8.00006L12.28 11.2201C12.3787 11.3117 12.4509 11.4283 12.4889 11.5576C12.5269 11.6868 12.5294 11.8239 12.496 11.9545C12.4626 12.085 12.3947 12.2041 12.2993 12.2992C12.2039 12.3944 12.0846 12.462 11.954 12.4951C11.8236 12.5285 11.6867 12.5261 11.5575 12.4883C11.4283 12.4505 11.3118 12.3785 11.22 12.2801L8.00001 9.06006L4.78001 12.2801C4.63775 12.4125 4.4497 12.4846 4.25538 12.4812C4.06106 12.4779 3.87561 12.3993 3.73801 12.2621C3.60077 12.1245 3.52221 11.939 3.51886 11.7447C3.5155 11.5504 3.5876 11.3623 3.72001 11.2201L6.94001 8.00006L3.72001 4.78006C3.57956 4.63943 3.50067 4.44881 3.50067 4.25006C3.50067 4.05131 3.57956 3.86068 3.72001 3.72006Z" fill="white"/>
</svg>
