<svg width="69" height="68" viewBox="0 0 69 68" fill="none" xmlns="http://www.w3.org/2000/svg">
<g filter="url(#filter0_d_79_636)">
<rect x="6.65625" y="3" width="56" height="56" rx="28" fill="white" shape-rendering="crispEdges"/>
<path d="M25.6562 21.625C25.6562 20.176 26.8322 19 28.2812 19H38.1603C38.8563 19 39.5238 19.276 40.0157 19.7695L44.3868 24.1405C44.8803 24.6325 45.1562 25.3 45.1562 25.996V40.375C45.1562 41.0712 44.8797 41.7389 44.3874 42.2312C43.8951 42.7234 43.2274 43 42.5312 43H28.2812C27.5851 43 26.9174 42.7234 26.4251 42.2312C25.9328 41.7389 25.6562 41.0712 25.6562 40.375V21.625ZM28.2812 21.25C28.1818 21.25 28.0864 21.2895 28.0161 21.3598C27.9458 21.4302 27.9062 21.5255 27.9062 21.625V40.375C27.9062 40.582 28.0742 40.75 28.2812 40.75H42.5312C42.6307 40.75 42.7261 40.7105 42.7964 40.6402C42.8667 40.5698 42.9062 40.4745 42.9062 40.375V25.996C42.9063 25.9467 42.8967 25.8979 42.8779 25.8524C42.8591 25.8068 42.8316 25.7654 42.7967 25.7305L38.4257 21.3595C38.3909 21.3247 38.3495 21.2971 38.3039 21.2783C38.2583 21.2595 38.2095 21.2499 38.1603 21.25H28.2812ZM35.0012 26.887C35.149 26.886 35.2955 26.9141 35.4323 26.9698C35.5692 27.0254 35.6938 27.1074 35.799 27.2112C35.9041 27.315 35.9878 27.4384 36.0453 27.5745C36.1027 27.7107 36.1328 27.8568 36.1337 28.0045L36.1488 30.25H38.3942C38.6926 30.25 38.9788 30.3685 39.1897 30.5795C39.4007 30.7905 39.5192 31.0766 39.5192 31.375C39.5192 31.6734 39.4007 31.9595 39.1897 32.1705C38.9788 32.3815 38.6926 32.5 38.3942 32.5H36.1562V34.7605C36.1562 35.0589 36.0377 35.345 35.8267 35.556C35.6158 35.767 35.3296 35.8855 35.0312 35.8855C34.7329 35.8855 34.4467 35.767 34.2358 35.556C34.0248 35.345 33.9062 35.0589 33.9062 34.7605V32.5075L31.6533 32.5225C31.3549 32.5245 31.0679 32.4079 30.8556 32.1983C30.6432 31.9887 30.5227 31.7034 30.5208 31.405C30.5188 31.1066 30.6354 30.8197 30.845 30.6073C31.0545 30.3949 31.3399 30.2745 31.6382 30.2725L33.8988 30.2575L33.8837 28.0195C33.8828 27.8718 33.9109 27.7253 33.9665 27.5884C34.0221 27.4515 34.1042 27.327 34.2079 27.2218C34.3117 27.1166 34.4352 27.0329 34.5713 26.9755C34.7074 26.9181 34.8535 26.888 35.0012 26.887Z" fill="#010409"/>
</g>
<defs>
<filter id="filter0_d_79_636" x="0.65625" y="0" width="68" height="68" filterUnits="userSpaceOnUse" color-interpolation-filters="sRGB">
<feFlood flood-opacity="0" result="BackgroundImageFix"/>
<feColorMatrix in="SourceAlpha" type="matrix" values="0 0 0 0 0 0 0 0 0 0 0 0 0 0 0 0 0 0 127 0" result="hardAlpha"/>
<feOffset dy="3"/>
<feGaussianBlur stdDeviation="3"/>
<feComposite in2="hardAlpha" operator="out"/>
<feColorMatrix type="matrix" values="0 0 0 0 0.00392157 0 0 0 0 0.0156863 0 0 0 0 0.0352941 0 0 0 1 0"/>
<feBlend mode="normal" in2="BackgroundImageFix" result="effect1_dropShadow_79_636"/>
<feBlend mode="normal" in="SourceGraphic" in2="effect1_dropShadow_79_636" result="shape"/>
</filter>
</defs>
</svg>
