<svg width="14" height="14" viewBox="0 0 14 14" fill="none" xmlns="http://www.w3.org/2000/svg">
<g clip-path="url(#clip0_58_768)">
<path d="M8.75007 4.08339L4.9584 7.87506C4.72634 8.10713 4.59597 8.42187 4.59597 8.75006C4.59597 9.07825 4.72634 9.393 4.9584 9.62506C5.19047 9.85712 5.50522 9.9875 5.8334 9.9875C6.16159 9.9875 6.47634 9.85712 6.7084 9.62506L10.5001 5.83339C10.9642 5.36927 11.2249 4.73977 11.2249 4.08339C11.2249 3.42702 10.9642 2.79752 10.5001 2.33339C10.0359 1.86927 9.40645 1.60852 8.75007 1.60852C8.09369 1.60852 7.4642 1.86927 7.00007 2.33339L3.2084 6.12506C2.51221 6.82125 2.12109 7.76549 2.12109 8.75006C2.12109 9.73463 2.51221 10.6789 3.2084 11.3751C3.9046 12.0713 4.84884 12.4624 5.8334 12.4624C6.81797 12.4624 7.76221 12.0713 8.4584 11.3751L12.2501 7.58339" stroke="#5F5F5F" stroke-width="1.16667" stroke-linecap="round" stroke-linejoin="round"/>
</g>
<defs>
<clipPath id="clip0_58_768">
<rect width="14" height="14" fill="white"/>
</clipPath>
</defs>
</svg>
