<svg width="14" height="14" viewBox="0 0 14 14" fill="none" xmlns="http://www.w3.org/2000/svg">
<g clip-path="url(#clip0_58_720)">
<path d="M5.8335 8.16668C6.02359 8.3607 6.25049 8.51483 6.5009 8.62006C6.75132 8.72528 7.02021 8.77948 7.29183 8.77948C7.56345 8.77948 7.83234 8.72528 8.08276 8.62006C8.33317 8.51483 8.56007 8.3607 8.75016 8.16668L11.0835 5.83335C11.4703 5.44658 11.6876 4.922 11.6876 4.37502C11.6876 3.82804 11.4703 3.30346 11.0835 2.91668C10.6967 2.52991 10.1721 2.31262 9.62516 2.31262C9.07818 2.31262 8.5536 2.52991 8.16683 2.91668L7.87516 3.20835" stroke="#5F5F5F" stroke-width="1.16667" stroke-linecap="round" stroke-linejoin="round"/>
<path d="M8.16656 5.83338C7.97647 5.63936 7.74957 5.48523 7.49915 5.38001C7.24874 5.27478 6.97985 5.22058 6.70823 5.22058C6.43661 5.22058 6.16771 5.27478 5.9173 5.38001C5.66689 5.48523 5.43999 5.63936 5.24989 5.83338L2.91656 8.16671C2.52979 8.55349 2.3125 9.07806 2.3125 9.62505C2.3125 10.172 2.52979 10.6966 2.91656 11.0834C3.30334 11.4702 3.82791 11.6874 4.37489 11.6874C4.92188 11.6874 5.44645 11.4702 5.83323 11.0834L6.12489 10.7917" stroke="#5F5F5F" stroke-width="1.16667" stroke-linecap="round" stroke-linejoin="round"/>
</g>
<defs>
<clipPath id="clip0_58_720">
<rect width="14" height="14" fill="white"/>
</clipPath>
</defs>
</svg>
