<svg width="30" height="30" viewBox="0 0 30 30" fill="none" xmlns="http://www.w3.org/2000/svg">
<path d="M15 16.3499C14.8375 16.3499 14.675 16.3124 14.525 16.2249L7.90002 12.3999C7.45002 12.1374 7.30001 11.5624 7.56251 11.1124C7.82501 10.6624 8.40002 10.5124 8.83752 10.7749L14.9875 14.3374L21.1 10.7999C21.55 10.5374 22.125 10.6999 22.375 11.1374C22.6375 11.5874 22.475 12.1624 22.0375 12.4249L15.4625 16.2249C15.325 16.2999 15.1625 16.3499 15 16.3499Z" fill="#6DA1E2"/>
<path d="M15 23.1499C14.4875 23.1499 14.0625 22.7249 14.0625 22.2124V15.4124C14.0625 14.8999 14.4875 14.4749 15 14.4749C15.5125 14.4749 15.9375 14.8999 15.9375 15.4124V22.2124C15.9375 22.7249 15.5125 23.1499 15 23.1499Z" fill="#6DA1E2"/>
<path d="M15.0003 23.4375C14.2753 23.4375 13.5628 23.275 12.9878 22.9625L8.98779 20.7375C7.78779 20.075 6.86279 18.4875 6.86279 17.1125V12.875C6.86279 11.5125 7.80029 9.92504 8.98779 9.25004L12.9878 7.025C14.1378 6.3875 15.8628 6.3875 17.0128 7.025L21.0128 9.25004C22.2128 9.91254 23.1378 11.5 23.1378 12.875V17.1125C23.1378 18.475 22.2003 20.0625 21.0128 20.7375L17.0128 22.9625C16.4378 23.275 15.7253 23.4375 15.0003 23.4375ZM13.9003 8.67501L9.90028 10.9C9.28778 11.2375 8.73779 12.1875 8.73779 12.875V17.1125C8.73779 17.8125 9.28778 18.75 9.90028 19.0875L13.9003 21.3125C14.4753 21.625 15.5253 21.625 16.1003 21.3125L20.1003 19.0875C20.7128 18.75 21.2628 17.8 21.2628 17.1125V12.875C21.2628 12.175 20.7128 11.2375 20.1003 10.9L16.1003 8.67501C15.5253 8.36251 14.4753 8.36251 13.9003 8.67501Z" fill="#6DA1E2"/>
</svg>
