<svg width="16" height="16" viewBox="0 0 16 16" fill="none" xmlns="http://www.w3.org/2000/svg">
<path d="M3.72 3.72006C3.86062 3.57961 4.05125 3.50072 4.25 3.50072C4.44875 3.50072 4.63937 3.57961 4.78 3.72006L8 6.94006L11.22 3.72006C11.3117 3.62133 11.4283 3.54916 11.5575 3.51115C11.6868 3.47313 11.8239 3.47068 11.9544 3.50406C12.0849 3.53743 12.204 3.60539 12.2992 3.70078C12.3943 3.79617 12.462 3.91545 12.495 4.04606C12.5284 4.17643 12.5261 4.31341 12.4882 4.44257C12.4504 4.57173 12.3785 4.68832 12.28 4.78006L9.06 8.00006L12.28 11.2201C12.3787 11.3117 12.4509 11.4283 12.4889 11.5576C12.5269 11.6868 12.5294 11.8239 12.496 11.9545C12.4626 12.085 12.3947 12.2041 12.2993 12.2992C12.2039 12.3944 12.0846 12.462 11.954 12.4951C11.8236 12.5285 11.6866 12.5261 11.5575 12.4883C11.4283 12.4505 11.3117 12.3785 11.22 12.2801L8 9.06006L4.78 12.2801C4.63774 12.4125 4.44968 12.4846 4.25537 12.4812C4.06105 12.4779 3.8756 12.3993 3.738 12.2621C3.60075 12.1245 3.5222 11.939 3.51884 11.7447C3.51548 11.5504 3.58759 11.3623 3.72 11.2201L6.94 8.00006L3.72 4.78006C3.57955 4.63943 3.50066 4.44881 3.50066 4.25006C3.50066 4.05131 3.57955 3.86068 3.72 3.72006Z" fill="white"/>
</svg>
