<svg width="16" height="16" viewBox="0 0 16 16" fill="none" xmlns="http://www.w3.org/2000/svg">
<path d="M12.5961 11.5961L9.06108 15.1321C8.92178 15.2715 8.75638 15.3821 8.57433 15.4575C8.39228 15.5329 8.19714 15.5718 8.00008 15.5718C7.80302 15.5718 7.60788 15.5329 7.42583 15.4575C7.24378 15.3821 7.07838 15.2715 6.93908 15.1321L3.40408 11.5961C2.80046 10.9925 2.32163 10.276 1.99492 9.48739C1.66822 8.69878 1.50005 7.85355 1.5 6.99994C1.49995 6.14634 1.66804 5.30109 1.99465 4.51244C2.32127 3.7238 2.80002 3.00721 3.40358 2.40359C4.00713 1.79997 4.72367 1.32114 5.51228 0.994436C6.30089 0.667734 7.14612 0.499558 7.99973 0.499512C8.85333 0.499465 9.69858 0.667549 10.4872 0.994166C11.2759 1.32078 11.9925 1.79954 12.5961 2.40309C13.1998 3.00668 13.6786 3.72328 14.0053 4.51195C14.332 5.30062 14.5002 6.14593 14.5002 6.99959C14.5002 7.85326 14.332 8.69856 14.0053 9.48723C13.6786 10.2759 13.1998 10.9925 12.5961 11.5961ZM11.5361 3.46409C10.5983 2.52629 9.32634 1.99843 8.00008 1.99843C6.67382 1.99843 5.40189 2.52529 4.46408 3.46309C3.52627 4.4009 2.99942 5.67283 2.99942 6.99909C2.99942 8.32535 3.52627 9.59729 4.46408 10.5351L8.00008 14.0701L11.5361 10.5361C12.0005 10.0718 12.3689 9.52053 12.6203 8.91381C12.8716 8.3071 13.001 7.65681 13.001 7.00009C13.001 6.34337 12.8716 5.69308 12.6203 5.08637C12.3689 4.47966 12.0005 3.9284 11.5361 3.46409ZM8.00008 9.00009C7.73374 9.00611 7.46888 8.95887 7.22105 8.86112C6.97323 8.76337 6.74743 8.6171 6.55691 8.43089C6.36639 8.24467 6.21499 8.02227 6.11161 7.77675C6.00822 7.53122 5.95493 7.26751 5.95486 7.0011C5.9548 6.7347 6.00796 6.47096 6.11122 6.22538C6.21448 5.9798 6.36577 5.75732 6.55619 5.57102C6.74662 5.38471 6.97235 5.23832 7.22012 5.14045C7.4679 5.04258 7.73274 4.9952 7.99908 5.00109C8.52164 5.01265 9.01891 5.22832 9.38445 5.60193C9.74998 5.97554 9.95473 6.47741 9.95486 7.0001C9.95499 7.52279 9.7505 8.02476 9.38515 8.39856C9.0198 8.77236 8.52263 8.98827 8.00008 9.00009Z" fill="#8B949E"/>
</svg>
