<svg width="14" height="14" viewBox="0 0 14 14" fill="none" xmlns="http://www.w3.org/2000/svg">
<g clip-path="url(#clip0_58_758)">
<path d="M4.6665 6.99996C4.6665 7.6188 4.91234 8.21229 5.34992 8.64988C5.78751 9.08746 6.381 9.33329 6.99984 9.33329C7.61868 9.33329 8.21217 9.08746 8.64975 8.64988C9.08734 8.21229 9.33317 7.6188 9.33317 6.99996C9.33317 6.38112 9.08734 5.78763 8.64975 5.35004C8.21217 4.91246 7.61868 4.66663 6.99984 4.66663C6.381 4.66663 5.78751 4.91246 5.34992 5.35004C4.91234 5.78763 4.6665 6.38112 4.6665 6.99996Z" stroke="#5F5F5F" stroke-width="1.16667" stroke-linecap="round" stroke-linejoin="round"/>
<path d="M9.33333 6.99991V7.87491C9.33333 8.26168 9.48698 8.63262 9.76047 8.90611C10.034 9.1796 10.4049 9.33324 10.7917 9.33324C11.1784 9.33324 11.5494 9.1796 11.8229 8.90611C12.0964 8.63262 12.25 8.26168 12.25 7.87491V6.99991C12.2514 5.8718 11.8895 4.77323 11.2177 3.86694C10.546 2.96064 9.60016 2.29483 8.52039 1.96814C7.44063 1.64144 6.28435 1.67123 5.22284 2.05311C4.16133 2.43498 3.25106 3.14862 2.62687 4.08831C2.00268 5.02799 1.69778 6.14375 1.75732 7.27028C1.81687 8.39682 2.2377 9.47421 2.95747 10.3429C3.67725 11.2115 4.65768 11.8252 5.75353 12.093C6.84938 12.3609 8.00236 12.2686 9.04167 11.8299" stroke="#5F5F5F" stroke-width="1.16667" stroke-linecap="round" stroke-linejoin="round"/>
</g>
<defs>
<clipPath id="clip0_58_758">
<rect width="14" height="14" fill="white"/>
</clipPath>
</defs>
</svg>
