<svg width="977" height="862" viewBox="0 0 977 862" fill="none" xmlns="http://www.w3.org/2000/svg">
<path d="M202 662C202 660.619 203.119 659.5 204.5 659.5H206.5C207.881 659.5 209 660.619 209 662C209 663.381 207.881 664.5 206.5 664.5H204.5C203.119 664.5 202 663.381 202 662Z" fill="#3A393E" stroke="#AAABB0"/>
<path d="M209 662C273.892 662 227.215 625.44 283 620" stroke="#AAABB0" stroke-width="2"/>
<rect x="282.1" y="616.5" width="6.4" height="5.06452" rx="2.53226" fill="#3A393E" stroke="#AAABB0"/>
<path d="M209.5 503C209.5 501.619 210.619 500.5 212 500.5H214C215.381 500.5 216.5 501.619 216.5 503C216.5 504.381 215.381 505.5 214 505.5H212C210.619 505.5 209.5 504.381 209.5 503Z" fill="#3A393E" stroke="#AAABB0"/>
<rect x="277.5" y="458.5" width="6.4" height="5.06452" rx="2.53226" fill="#3A393E" stroke="#AAABB0"/>
<path d="M216 503C270.369 503 231.262 467.31 278 462" stroke="#AAABB0" stroke-width="2"/>
<path d="M205 356C205 354.619 206.119 353.5 207.5 353.5H209.5C210.881 353.5 212 354.619 212 356C212 357.381 210.881 358.5 209.5 358.5H207.5C206.119 358.5 205 357.381 205 356Z" fill="#3A393E" stroke="#AAABB0"/>
<path d="M211 355C271.508 355 227.985 361.093 280 362" stroke="#AAABB0" stroke-width="2"/>
<rect x="279.5" y="358.5" width="6.4" height="5.06452" rx="2.53226" fill="#3A393E" stroke="#AAABB0"/>
<path d="M205.5 201C205.5 199.619 206.619 198.5 208 198.5H210C211.381 198.5 212.5 199.619 212.5 201C212.5 202.381 211.381 203.5 210 203.5H208C206.619 203.5 205.5 202.381 205.5 201Z" fill="#3A393E" stroke="#AAABB0"/>
<path d="M213 201C273.508 201 229.985 209.705 282 211" stroke="#AAABB0" stroke-width="2"/>
<rect x="281.5" y="208.5" width="6.4" height="5.06452" rx="2.53226" fill="#3A393E" stroke="#AAABB0"/>
</svg>
