<svg width="13" height="13" viewBox="0 0 13 13" fill="none" xmlns="http://www.w3.org/2000/svg">
<path d="M7.84475 0.889991L8.5415 1.39999C8.65625 1.48399 8.78975 1.53949 8.93 1.56124L9.7835 1.69249C10.2058 1.75741 10.5964 1.95532 10.8985 2.25745C11.2007 2.55957 11.3986 2.95018 11.4635 3.37249L11.594 4.22674C11.6157 4.36699 11.6712 4.50049 11.7552 4.61524L12.2652 5.31124C12.5184 5.65587 12.655 6.07235 12.655 6.49999C12.655 6.92764 12.5184 7.34411 12.2652 7.68874L11.7552 8.38474C11.6709 8.49931 11.6156 8.63262 11.594 8.77324L11.4627 9.62674C11.3979 10.0493 11.2 10.4401 10.8977 10.7424C10.5954 11.0447 10.2046 11.2427 9.782 11.3075L8.9285 11.4387C8.78784 11.4602 8.65451 11.5155 8.54 11.6L7.844 12.11C7.49937 12.3632 7.08289 12.4997 6.65525 12.4997C6.2276 12.4997 5.81113 12.3632 5.4665 12.11L4.7705 11.6C4.65593 11.5156 4.52262 11.4603 4.382 11.4387L3.5285 11.3075C3.10618 11.2426 2.71558 11.0447 2.41345 10.7425C2.11132 10.4404 1.91342 10.0498 1.8485 9.62749L1.71725 8.77399C1.69579 8.63333 1.64045 8.5 1.556 8.38549L1.046 7.68949C0.792796 7.34486 0.65625 6.92839 0.65625 6.50074C0.65625 6.0731 0.792796 5.65662 1.046 5.31199L1.556 4.61599C1.64 4.50124 1.6955 4.36774 1.71725 4.22749L1.8485 3.37249C1.91342 2.95018 2.11132 2.55957 2.41345 2.25745C2.71558 1.95532 3.10618 1.75741 3.5285 1.69249L4.38275 1.56124C4.523 1.53949 4.6565 1.48399 4.77125 1.39999L5.46725 0.889991C5.81188 0.636791 6.22835 0.500244 6.656 0.500244C7.08364 0.500244 7.50012 0.636791 7.84475 0.889991ZM6.13325 1.79599L5.438 2.30599C5.17701 2.49804 4.87332 2.62389 4.553 2.67274L3.70025 2.80324C3.51412 2.83174 3.34195 2.9189 3.2088 3.05205C3.07566 3.18519 2.98849 3.35736 2.96 3.54349L2.8295 4.39549C2.78045 4.71576 2.65462 5.01941 2.46275 5.28049L1.95275 5.97649C1.84171 6.12817 1.78186 6.31126 1.78186 6.49924C1.78186 6.68722 1.84171 6.87031 1.95275 7.02199L2.46275 7.71724C2.65475 7.97824 2.78075 8.28199 2.8295 8.60224L2.96 9.45499C3.0185 9.83674 3.3185 10.1367 3.70025 10.1952L4.55225 10.3257C4.87257 10.3746 5.17626 10.5004 5.43725 10.6925L6.13325 11.2025C6.44375 11.4312 6.8675 11.4312 7.17875 11.2025L7.874 10.6925C8.13498 10.5004 8.43867 10.3746 8.759 10.3257L9.61175 10.1952C9.79783 10.1666 9.96994 10.0794 10.1031 9.94631C10.2362 9.81318 10.3234 9.64107 10.352 9.45499L10.4825 8.60299C10.5313 8.28266 10.6572 7.97897 10.8492 7.71799L11.3592 7.02199C11.4707 6.8705 11.5309 6.68733 11.5309 6.49924C11.5309 6.31115 11.4707 6.12799 11.3592 5.97649L10.8492 5.28124C10.6576 5.02002 10.5318 4.71644 10.4825 4.39624L10.352 3.54349C10.3235 3.35736 10.2363 3.18519 10.1032 3.05205C9.97004 2.9189 9.79787 2.83174 9.61175 2.80324L8.75975 2.67274C8.43948 2.62369 8.13583 2.49786 7.87475 2.30599L7.17875 1.79599C7.02725 1.68451 6.84409 1.62438 6.656 1.62438C6.46791 1.62438 6.28474 1.68451 6.13325 1.79599ZM9.116 5.58499L6.3035 8.39749C6.19803 8.50283 6.05506 8.562 5.906 8.562C5.75693 8.562 5.61397 8.50283 5.5085 8.39749L4.196 7.08499C4.09669 6.97829 4.04261 6.83726 4.04513 6.69152C4.04765 6.54578 4.10656 6.40669 4.2095 6.30349C4.3127 6.20056 4.45179 6.14164 4.59752 6.13912C4.74326 6.13661 4.8843 6.19068 4.991 6.28999L5.906 7.20499L8.321 4.78999C8.42769 4.69068 8.56873 4.63661 8.71447 4.63912C8.86021 4.64164 8.99929 4.70056 9.1025 4.80349C9.20543 4.90669 9.26435 5.04578 9.26686 5.19152C9.26938 5.33726 9.2153 5.4783 9.116 5.58499Z" fill="#6E7681"/>
</svg>
