<svg width="18" height="18" viewBox="0 0 18 18" fill="none" xmlns="http://www.w3.org/2000/svg">
<g opacity="0.7" clip-path="url(#clip0_60_801)">
<path d="M5.625 7.5C3.3465 7.5 1.5 9.01125 1.5 10.875C1.5 11.9227 2.0835 12.8587 3 13.4775V15L4.473 14.1165C4.8505 14.2057 5.23712 14.2505 5.625 14.25C7.9035 14.25 9.75 12.7387 9.75 10.875C9.75 9.01125 7.9035 7.5 5.625 7.5Z" stroke="white" stroke-width="1.5" stroke-linecap="round" stroke-linejoin="round"/>
<path d="M9.60225 11.7735C10.1198 11.9205 10.6748 12 11.25 12C11.9165 12.0014 12.5785 11.8919 13.209 11.676L15 12.75V10.6493C15.9278 9.83775 16.5 8.72625 16.5 7.5C16.5 5.0145 14.1495 3 11.25 3C8.4135 3 6.10275 4.9275 6 7.33875V7.5135" stroke="white" stroke-width="1.5" stroke-linecap="round" stroke-linejoin="round"/>
</g>
<defs>
<clipPath id="clip0_60_801">
<rect width="18" height="18" fill="white" transform="matrix(-1 0 0 1 18 0)"/>
</clipPath>
</defs>
</svg>
