<svg width="18" height="18" viewBox="0 0 18 18" fill="none" xmlns="http://www.w3.org/2000/svg">
<g opacity="0.7" clip-path="url(#clip0_60_807)">
<path d="M13.5 12.75H8.25C7.85218 12.75 7.47064 12.592 7.18934 12.3107C6.90804 12.0294 6.75 11.6478 6.75 11.25V3.75C6.75 3.35218 6.90804 2.97064 7.18934 2.68934C7.47064 2.40804 7.85218 2.25 8.25 2.25H11.25L15 6V11.25C15 11.6478 14.842 12.0294 14.5607 12.3107C14.2794 12.592 13.8978 12.75 13.5 12.75Z" stroke="white" stroke-width="1.5" stroke-linecap="round" stroke-linejoin="round"/>
<path d="M10 7H12.2083" stroke="white" stroke-width="1.5" stroke-linecap="round" stroke-linejoin="round"/>
<path d="M10 4.41675V7.00008" stroke="white" stroke-width="1.5" stroke-linecap="round" stroke-linejoin="round"/>
<path d="M12 12.75V14.25C12 14.6478 11.842 15.0294 11.5607 15.3107C11.2794 15.592 10.8978 15.75 10.5 15.75H5.25C4.85218 15.75 4.47064 15.592 4.18934 15.3107C3.90804 15.0294 3.75 14.6478 3.75 14.25V6.75C3.75 6.35218 3.90804 5.97064 4.18934 5.68934C4.47064 5.40804 4.85218 5.25 5.25 5.25H6.75" stroke="white" stroke-width="1.5" stroke-linecap="round" stroke-linejoin="round"/>
</g>
<defs>
<clipPath id="clip0_60_807">
<rect width="18" height="18" fill="white"/>
</clipPath>
</defs>
</svg>
