<svg width="14" height="14" viewBox="0 0 14 14" fill="none" xmlns="http://www.w3.org/2000/svg">
<g clip-path="url(#clip0_58_745)">
<path d="M8.1665 1.75V4.08333C8.1665 4.23804 8.22796 4.38642 8.33736 4.49581C8.44675 4.60521 8.59513 4.66667 8.74984 4.66667H11.0832" stroke="#5F5F5F" stroke-width="1.16667" stroke-linecap="round" stroke-linejoin="round"/>
<path d="M9.9165 12.25H4.08317C3.77375 12.25 3.47701 12.1271 3.25821 11.9083C3.03942 11.6895 2.9165 11.3928 2.9165 11.0833V2.91667C2.9165 2.60725 3.03942 2.3105 3.25821 2.09171C3.47701 1.87292 3.77375 1.75 4.08317 1.75H8.1665L11.0832 4.66667V11.0833C11.0832 11.3928 10.9603 11.6895 10.7415 11.9083C10.5227 12.1271 10.2259 12.25 9.9165 12.25Z" stroke="#5F5F5F" stroke-width="1.16667" stroke-linecap="round" stroke-linejoin="round"/>
<path d="M5.83333 7.58337L5.25 8.75004L5.83333 9.91671" stroke="#5F5F5F" stroke-width="1.16667" stroke-linecap="round" stroke-linejoin="round"/>
<path d="M8.1665 7.58337L8.74984 8.75004L8.1665 9.91671" stroke="#5F5F5F" stroke-width="1.16667" stroke-linecap="round" stroke-linejoin="round"/>
</g>
<defs>
<clipPath id="clip0_58_745">
<rect width="14" height="14" fill="white"/>
</clipPath>
</defs>
</svg>
