<svg width="30" height="30" viewBox="0 0 30 30" fill="none" xmlns="http://www.w3.org/2000/svg">
<path d="M15.0001 16.3499C14.8376 16.3499 14.6751 16.3124 14.5251 16.2249L7.90014 12.3999C7.45014 12.1374 7.30014 11.5624 7.56264 11.1124C7.82514 10.6624 8.40014 10.5124 8.83764 10.7749L14.9876 14.3374L21.1001 10.7999C21.5501 10.5374 22.1251 10.6999 22.3751 11.1374C22.6376 11.5874 22.4751 12.1624 22.0376 12.4249L15.4626 16.2249C15.3251 16.2999 15.1626 16.3499 15.0001 16.3499Z" fill="#6DA1E2"/>
<path d="M15 23.15C14.4875 23.15 14.0625 22.725 14.0625 22.2125V15.4125C14.0625 14.9 14.4875 14.475 15 14.475C15.5125 14.475 15.9375 14.9 15.9375 15.4125V22.2125C15.9375 22.725 15.5125 23.15 15 23.15Z" fill="#6DA1E2"/>
<path d="M15.0003 23.4375C14.2753 23.4375 13.5628 23.275 12.9878 22.9625L8.98779 20.7375C7.78779 20.075 6.86279 18.4875 6.86279 17.1125V12.875C6.86279 11.5125 7.80029 9.92504 8.98779 9.25004L12.9878 7.025C14.1378 6.3875 15.8628 6.3875 17.0128 7.025L21.0128 9.25004C22.2128 9.91254 23.1378 11.5 23.1378 12.875V17.1125C23.1378 18.475 22.2003 20.0625 21.0128 20.7375L17.0128 22.9625C16.4378 23.275 15.7253 23.4375 15.0003 23.4375ZM13.9003 8.67501L9.90028 10.9C9.28778 11.2375 8.73779 12.1875 8.73779 12.875V17.1125C8.73779 17.8125 9.28778 18.75 9.90028 19.0875L13.9003 21.3125C14.4753 21.625 15.5253 21.625 16.1003 21.3125L20.1003 19.0875C20.7128 18.75 21.2628 17.8 21.2628 17.1125V12.875C21.2628 12.175 20.7128 11.2375 20.1003 10.9L16.1003 8.67501C15.5253 8.36251 14.4753 8.36251 13.9003 8.67501Z" fill="#6DA1E2"/>
</svg>
