<svg width="17" height="16" viewBox="0 0 17 16" fill="none" xmlns="http://www.w3.org/2000/svg">
<path d="M8.76563 0.25C8.90564 0.24991 9.04288 0.289014 9.16182 0.362887C9.28076 0.43676 9.37665 0.542452 9.43863 0.668L11.3206 4.483L15.5306 5.095C15.6691 5.11511 15.7992 5.17355 15.9062 5.26372C16.0131 5.35388 16.0928 5.47218 16.1361 5.60523C16.1793 5.73829 16.1845 5.8808 16.151 6.01665C16.1176 6.1525 16.0468 6.27628 15.9466 6.374L12.9006 9.344L13.6196 13.536C13.6429 13.6738 13.6273 13.8154 13.5745 13.9449C13.5217 14.0743 13.4338 14.1865 13.3208 14.2687C13.2077 14.3509 13.0739 14.3999 12.9345 14.4102C12.7951 14.4205 12.6556 14.3917 12.5316 14.327L8.76563 12.347L4.99963 14.327C4.87581 14.392 4.73629 14.4211 4.59682 14.411C4.45734 14.4009 4.32346 14.352 4.21031 14.2699C4.09715 14.1877 4.00922 14.0755 3.95644 13.946C3.90366 13.8165 3.88814 13.6749 3.91163 13.537L4.63163 9.343L1.58363 6.374C1.48319 6.27632 1.41212 6.15247 1.37848 6.01647C1.34483 5.88047 1.34995 5.73777 1.39325 5.60453C1.43655 5.47129 1.51631 5.35284 1.62348 5.26261C1.73065 5.17238 1.86096 5.11397 1.99963 5.094L6.20963 4.483L8.09263 0.668C8.1546 0.542452 8.25049 0.43676 8.36943 0.362887C8.48837 0.289014 8.62561 0.24991 8.76563 0.25ZM8.76563 2.695L7.38063 5.5C7.32684 5.6089 7.24741 5.70311 7.14917 5.77453C7.05093 5.84595 6.93681 5.89244 6.81663 5.91L3.71963 6.36L5.95963 8.544C6.04678 8.62886 6.11198 8.73365 6.14961 8.84933C6.18724 8.96501 6.19617 9.0881 6.17563 9.208L5.64763 12.292L8.41663 10.836C8.52426 10.7794 8.64403 10.7499 8.76563 10.7499C8.88722 10.7499 9.007 10.7794 9.11463 10.836L11.8846 12.292L11.3546 9.208C11.3341 9.0881 11.343 8.96501 11.3806 8.84933C11.4183 8.73365 11.4835 8.62886 11.5706 8.544L13.8106 6.361L10.7146 5.911C10.5944 5.89344 10.4803 5.84695 10.3821 5.77553C10.2838 5.70411 10.2044 5.6099 10.1506 5.501L8.76563 2.695Z" fill="#8B949E"/>
</svg>
