<svg width="16" height="16" viewBox="0 0 16 16" fill="none" xmlns="http://www.w3.org/2000/svg">
<path d="M1.99993 5.49994C1.99986 4.91982 2.14399 4.34877 2.41936 3.83816C2.69473 3.32755 3.0927 2.8934 3.57748 2.57476C4.06226 2.25611 4.61865 2.06296 5.19659 2.01268C5.77454 1.9624 6.35591 2.05657 6.88844 2.28672C7.42096 2.51686 7.88792 2.87577 8.24733 3.33115C8.60674 3.78654 8.84732 4.32412 8.94742 4.89554C9.04753 5.46697 9.00403 6.05431 8.82084 6.60476C8.63764 7.1552 8.3205 7.65147 7.89793 8.04894C8.69474 8.4356 9.38655 9.0087 9.91472 9.71965C10.4429 10.4306 10.7918 11.2584 10.9319 12.1329C10.9474 12.2303 10.9435 12.3296 10.9205 12.4255C10.8975 12.5213 10.8559 12.6116 10.798 12.6913C10.7401 12.771 10.6671 12.8386 10.5831 12.8901C10.4991 12.9416 10.4057 12.976 10.3084 12.9914C10.2111 13.0069 10.1117 13.003 10.0159 12.98C9.92011 12.957 9.82977 12.9154 9.75005 12.8575C9.67033 12.7996 9.6028 12.7266 9.5513 12.6426C9.49981 12.5586 9.46536 12.4653 9.44993 12.3679C9.29994 11.4283 8.81986 10.5728 8.0959 9.95524C7.37193 9.33767 6.45152 8.99842 5.49993 8.99842C4.54834 8.99842 3.62793 9.33767 2.90396 9.95524C2.18 10.5728 1.69992 11.4283 1.54993 12.3679C1.53443 12.4653 1.49992 12.5586 1.44837 12.6425C1.39681 12.7265 1.32922 12.7995 1.24946 12.8573C1.16969 12.9152 1.07931 12.9568 0.983481 12.9797C0.887649 13.0026 0.78824 13.0064 0.69093 12.9909C0.593621 12.9754 0.500316 12.9409 0.416344 12.8894C0.332372 12.8378 0.259377 12.7702 0.201526 12.6905C0.143675 12.6107 0.102101 12.5203 0.079179 12.4245C0.0562567 12.3287 0.0524344 12.2293 0.0679304 12.1319C0.208265 11.2578 0.557305 10.4303 1.08546 9.71971C1.61362 9.00911 2.30532 8.43634 3.10193 8.04994C2.7536 7.72287 2.47608 7.32782 2.28653 6.8892C2.09698 6.45059 1.99944 5.97776 1.99993 5.49994ZM10.9999 3.99994C11.5809 4.00035 12.1493 4.16941 12.6361 4.48659C13.1229 4.80378 13.5072 5.25545 13.7423 5.78679C13.9773 6.31813 14.0531 6.90628 13.9604 7.47984C13.8677 8.05341 13.6104 8.58773 13.2199 9.01794C13.8286 9.32013 14.3694 9.74298 14.8095 10.2608C15.2496 10.7786 15.5798 11.3805 15.7799 12.0299C15.8196 12.156 15.8251 12.2903 15.7961 12.4192C15.767 12.5482 15.7044 12.6671 15.6145 12.764C15.5246 12.8609 15.4107 12.9323 15.2844 12.9709C15.158 13.0095 15.0236 13.014 14.8949 12.9839C14.7664 12.954 14.6479 12.8907 14.5516 12.8005C14.4552 12.7103 14.3843 12.5963 14.3459 12.4699C14.1667 11.8902 13.8401 11.3668 13.398 10.951C12.956 10.5353 12.4136 10.2413 11.8239 10.0979C11.6602 10.0584 11.5145 9.9649 11.4104 9.83247C11.3062 9.70004 11.2497 9.53641 11.2499 9.36794V9.01594C11.2498 8.87631 11.2887 8.73943 11.3622 8.6207C11.4357 8.50198 11.5409 8.40613 11.6659 8.34394C11.9691 8.1937 12.2126 7.94537 12.3568 7.63929C12.501 7.33321 12.5375 6.98737 12.4603 6.65793C12.3832 6.32849 12.1969 6.03481 11.9318 5.82459C11.6667 5.61437 11.3383 5.49996 10.9999 5.49994C10.801 5.49994 10.6103 5.42093 10.4696 5.28027C10.3289 5.13962 10.2499 4.94886 10.2499 4.74994C10.2499 4.55103 10.3289 4.36027 10.4696 4.21961C10.6103 4.07896 10.801 3.99994 10.9999 3.99994ZM5.49993 3.49994C5.23359 3.49392 4.96873 3.54117 4.72091 3.63891C4.47308 3.73666 4.24728 3.88293 4.05676 4.06915C3.86624 4.25536 3.71484 4.47776 3.61146 4.72329C3.50807 4.96882 3.45478 5.23252 3.45471 5.49893C3.45465 5.76534 3.50781 6.02907 3.61107 6.27465C3.71433 6.52024 3.86562 6.74271 4.05604 6.92902C4.24647 7.11533 4.4722 7.26171 4.71998 7.35958C4.96775 7.45745 5.23259 7.50483 5.49893 7.49894C6.02149 7.48739 6.51877 7.27172 6.8843 6.8981C7.24984 6.52449 7.45458 6.02262 7.45471 5.49993C7.45485 4.97724 7.25035 4.47527 6.885 4.10147C6.51965 3.72768 6.02249 3.51176 5.49993 3.49994Z" fill="#8B949E"/>
</svg>
