<svg width="13" height="13" viewBox="0 0 13 13" fill="none" xmlns="http://www.w3.org/2000/svg">
<path d="M7.84475 0.890113L8.5415 1.40011C8.65625 1.48411 8.78975 1.53961 8.93 1.56136L9.7835 1.69261C10.2058 1.75753 10.5964 1.95544 10.8985 2.25757C11.2007 2.5597 11.3986 2.9503 11.4635 3.37261L11.594 4.22686C11.6157 4.36711 11.6712 4.50061 11.7552 4.61536L12.2652 5.31136C12.5184 5.65599 12.655 6.07247 12.655 6.50011C12.655 6.92776 12.5184 7.34423 12.2652 7.68886L11.7552 8.38486C11.6709 8.49943 11.6156 8.63274 11.594 8.77336L11.4627 9.62686C11.3979 10.0494 11.2 10.4403 10.8977 10.7426C10.5954 11.0448 10.2046 11.2428 9.782 11.3076L8.9285 11.4389C8.78784 11.4603 8.65451 11.5157 8.54 11.6001L7.844 12.1101C7.49937 12.3633 7.08289 12.4999 6.65525 12.4999C6.2276 12.4999 5.81113 12.3633 5.4665 12.1101L4.7705 11.6001C4.65593 11.5158 4.52262 11.4604 4.382 11.4389L3.5285 11.3076C3.10618 11.2427 2.71558 11.0448 2.41345 10.7427C2.11132 10.4405 1.91342 10.0499 1.8485 9.62761L1.71725 8.77411C1.69579 8.63345 1.64045 8.50012 1.556 8.38561L1.046 7.68961C0.792796 7.34498 0.65625 6.92851 0.65625 6.50086C0.65625 6.07322 0.792796 5.65674 1.046 5.31211L1.556 4.61611C1.64 4.50136 1.6955 4.36786 1.71725 4.22761L1.8485 3.37261C1.91342 2.9503 2.11132 2.5597 2.41345 2.25757C2.71558 1.95544 3.10618 1.75753 3.5285 1.69261L4.38275 1.56136C4.523 1.53961 4.6565 1.48411 4.77125 1.40011L5.46725 0.890113C5.81188 0.636913 6.22835 0.500366 6.656 0.500366C7.08364 0.500366 7.50012 0.636913 7.84475 0.890113ZM6.13325 1.79611L5.438 2.30611C5.17701 2.49816 4.87332 2.62402 4.553 2.67286L3.70025 2.80336C3.51412 2.83186 3.34195 2.91902 3.2088 3.05217C3.07566 3.18532 2.98849 3.35749 2.96 3.54361L2.8295 4.39561C2.78045 4.71588 2.65462 5.01953 2.46275 5.28061L1.95275 5.97661C1.84171 6.12829 1.78186 6.31139 1.78186 6.49936C1.78186 6.68734 1.84171 6.87043 1.95275 7.02211L2.46275 7.71736C2.65475 7.97836 2.78075 8.28211 2.8295 8.60236L2.96 9.45511C3.0185 9.83686 3.3185 10.1369 3.70025 10.1954L4.55225 10.3259C4.87257 10.3747 5.17626 10.5006 5.43725 10.6926L6.13325 11.2026C6.44375 11.4314 6.8675 11.4314 7.17875 11.2026L7.874 10.6926C8.13498 10.5006 8.43867 10.3747 8.759 10.3259L9.61175 10.1954C9.79783 10.1668 9.96994 10.0796 10.1031 9.94643C10.2362 9.8133 10.3234 9.64119 10.352 9.45511L10.4825 8.60311C10.5313 8.28279 10.6572 7.9791 10.8492 7.71811L11.3592 7.02211C11.4707 6.87062 11.5309 6.68745 11.5309 6.49936C11.5309 6.31127 11.4707 6.12811 11.3592 5.97661L10.8492 5.28136C10.6576 5.02015 10.5318 4.71656 10.4825 4.39636L10.352 3.54361C10.3235 3.35749 10.2363 3.18532 10.1032 3.05217C9.97004 2.91902 9.79787 2.83186 9.61175 2.80336L8.75975 2.67286C8.43948 2.62381 8.13583 2.49798 7.87475 2.30611L7.17875 1.79611C7.02725 1.68463 6.84409 1.62451 6.656 1.62451C6.46791 1.62451 6.28474 1.68463 6.13325 1.79611ZM9.116 5.58511L6.3035 8.39761C6.19803 8.50295 6.05506 8.56212 5.906 8.56212C5.75693 8.56212 5.61397 8.50295 5.5085 8.39761L4.196 7.08511C4.09669 6.97842 4.04261 6.83738 4.04513 6.69164C4.04765 6.5459 4.10656 6.40682 4.2095 6.30361C4.3127 6.20068 4.45179 6.14176 4.59752 6.13925C4.74326 6.13673 4.8843 6.19081 4.991 6.29011L5.906 7.20511L8.321 4.79011C8.42769 4.69081 8.56873 4.63673 8.71447 4.63925C8.86021 4.64176 8.99929 4.70068 9.1025 4.80361C9.20543 4.90682 9.26435 5.0459 9.26686 5.19164C9.26938 5.33738 9.2153 5.47842 9.116 5.58511Z" fill="#6E7681"/>
</svg>
