<svg width="17" height="16" viewBox="0 0 17 16" fill="none" xmlns="http://www.w3.org/2000/svg">
<path d="M8.32817 0.25C8.46818 0.24991 8.60542 0.289014 8.72436 0.362887C8.8433 0.43676 8.93919 0.542452 9.00117 0.668L10.8832 4.483L15.0932 5.095C15.2316 5.11511 15.3617 5.17355 15.4687 5.26372C15.5757 5.35388 15.6553 5.47218 15.6986 5.60523C15.7419 5.73829 15.7471 5.8808 15.7136 6.01665C15.6801 6.1525 15.6093 6.27628 15.5092 6.374L12.4632 9.344L13.1822 13.536C13.2055 13.6738 13.1899 13.8154 13.1371 13.9449C13.0843 14.0743 12.9964 14.1865 12.8833 14.2687C12.7702 14.3509 12.6365 14.3999 12.497 14.4102C12.3576 14.4205 12.2181 14.3917 12.0942 14.327L8.32817 12.347L4.56217 14.327C4.43836 14.392 4.29883 14.4211 4.15936 14.411C4.01988 14.4009 3.88601 14.352 3.77285 14.2699C3.65969 14.1877 3.57176 14.0755 3.51898 13.946C3.4662 13.8165 3.45068 13.6749 3.47417 13.537L4.19417 9.343L1.14617 6.374C1.04573 6.27632 0.974667 6.15247 0.941019 6.01647C0.907372 5.88047 0.912489 5.73777 0.955792 5.60453C0.999095 5.47129 1.07885 5.35284 1.18602 5.26261C1.2932 5.17238 1.4235 5.11397 1.56217 5.094L5.77217 4.483L7.65517 0.668C7.71715 0.542452 7.81303 0.43676 7.93197 0.362887C8.05091 0.289014 8.18815 0.24991 8.32817 0.25ZM8.32817 2.695L6.94317 5.5C6.88938 5.6089 6.80995 5.70311 6.71171 5.77453C6.61347 5.84595 6.49935 5.89244 6.37917 5.91L3.28217 6.36L5.52217 8.544C5.60932 8.62886 5.67452 8.73365 5.71215 8.84933C5.74978 8.96501 5.75871 9.0881 5.73817 9.208L5.21017 12.292L7.97917 10.836C8.0868 10.7794 8.20657 10.7499 8.32817 10.7499C8.44976 10.7499 8.56954 10.7794 8.67717 10.836L11.4472 12.292L10.9172 9.208C10.8966 9.0881 10.9056 8.96501 10.9432 8.84933C10.9808 8.73365 11.046 8.62886 11.1332 8.544L13.3732 6.361L10.2772 5.911C10.157 5.89344 10.0429 5.84695 9.94462 5.77553C9.84638 5.70411 9.76695 5.6099 9.71317 5.501L8.32817 2.695Z" fill="#8B949E"/>
</svg>
