<svg width="68" height="68" viewBox="0 0 68 68" fill="none" xmlns="http://www.w3.org/2000/svg">
<g filter="url(#filter0_d_80_955)">
<rect x="6" y="3" width="56" height="56" rx="28" fill="white" shape-rendering="crispEdges"/>
<path d="M23.3438 21.1786V39.6429H44.8281C45.1389 39.6429 45.437 39.767 45.6568 39.9881C45.8765 40.2091 46 40.5089 46 40.8214C46 41.134 45.8765 41.4338 45.6568 41.6548C45.437 41.8758 45.1389 42 44.8281 42H22.1719C21.8611 42 21.563 41.8758 21.3432 41.6548C21.1235 41.4338 21 41.134 21 40.8214V21.1786C21 20.866 21.1235 20.5662 21.3432 20.3452C21.563 20.1242 21.8611 20 22.1719 20C22.4827 20 22.7807 20.1242 23.0005 20.3452C23.2203 20.5662 23.3438 20.866 23.3438 21.1786ZM45.6562 25.1543L37.4531 33.4043C37.2334 33.625 36.9355 33.749 36.625 33.749C36.3145 33.749 36.0166 33.625 35.7969 33.4043L31.9375 29.5229L27.6875 33.7971C27.4652 34.0052 27.1714 34.1185 26.8678 34.1132C26.5641 34.108 26.2744 33.9845 26.0594 33.7689C25.8449 33.5526 25.7222 33.2612 25.7169 32.9558C25.7117 32.6505 25.8244 32.355 26.0312 32.1314L31.1094 27.0243C31.3291 26.8036 31.627 26.6796 31.9375 26.6796C32.248 26.6796 32.5459 26.8036 32.7656 27.0243L36.625 30.9057L44 23.4886C44.2223 23.2805 44.5161 23.1672 44.8197 23.1725C45.1234 23.1777 45.4131 23.3012 45.6281 23.5169C45.8426 23.7331 45.9653 24.0245 45.9706 24.3299C45.9758 24.6352 45.8631 24.9307 45.6562 25.1543Z" fill="#141225"/>
</g>
<defs>
<filter id="filter0_d_80_955" x="0" y="0" width="68" height="68" filterUnits="userSpaceOnUse" color-interpolation-filters="sRGB">
<feFlood flood-opacity="0" result="BackgroundImageFix"/>
<feColorMatrix in="SourceAlpha" type="matrix" values="0 0 0 0 0 0 0 0 0 0 0 0 0 0 0 0 0 0 127 0" result="hardAlpha"/>
<feOffset dy="3"/>
<feGaussianBlur stdDeviation="3"/>
<feComposite in2="hardAlpha" operator="out"/>
<feColorMatrix type="matrix" values="0 0 0 0 0.00392157 0 0 0 0 0.0156863 0 0 0 0 0.0352941 0 0 0 1 0"/>
<feBlend mode="normal" in2="BackgroundImageFix" result="effect1_dropShadow_80_955"/>
<feBlend mode="normal" in="SourceGraphic" in2="effect1_dropShadow_80_955" result="shape"/>
</filter>
</defs>
</svg>
