<svg width="35" height="30" viewBox="0 0 35 30" fill="none" xmlns="http://www.w3.org/2000/svg">
<g clip-path="url(#clip0_79_747)">
<path d="M17.6559 17.9927C19.3088 17.9927 20.6487 16.6528 20.6487 14.9999C20.6487 13.347 19.3088 12.0071 17.6559 12.0071C16.003 12.0071 14.6631 13.347 14.6631 14.9999C14.6631 16.6528 16.003 17.9927 17.6559 17.9927Z" fill="#61DAFB"/>
<path d="M17.6558 21.1317C26.525 21.1317 33.7149 18.3865 33.7149 15.0001C33.7149 11.6136 26.525 8.86841 17.6558 8.86841C8.78658 8.86841 1.59668 11.6136 1.59668 15.0001C1.59668 18.3865 8.78658 21.1317 17.6558 21.1317Z" stroke="#61DAFB" stroke-width="1.45992"/>
<path d="M12.3457 18.0659C16.7803 25.7468 22.7527 30.6008 25.6855 28.9076C28.6182 27.2144 27.4007 19.6151 22.9661 11.9342C18.5315 4.25325 12.5591 -0.600771 9.62635 1.09244C6.69363 2.78565 7.91114 10.3849 12.3457 18.0659Z" stroke="#61DAFB" stroke-width="1.45992"/>
<path d="M12.3452 11.9341C7.91063 19.6151 6.69313 27.2143 9.62585 28.9075C12.5586 30.6008 18.531 25.7467 22.9656 18.0658C27.4002 10.3848 28.6177 2.78559 25.6849 1.09238C22.7522 -0.600834 16.7798 4.25319 12.3452 11.9341Z" stroke="#61DAFB" stroke-width="1.45992"/>
</g>
<defs>
<clipPath id="clip0_79_747">
<rect width="33.5781" height="29.875" fill="white" transform="translate(0.867188 0.0625)"/>
</clipPath>
</defs>
</svg>
