<svg width="23" height="22" viewBox="0 0 23 22" fill="none" xmlns="http://www.w3.org/2000/svg">
<path d="M6.9165 6.41675H5.99984C5.51361 6.41675 5.04729 6.6099 4.70347 6.95372C4.35966 7.29754 4.1665 7.76385 4.1665 8.25008V16.5001C4.1665 16.9863 4.35966 17.4526 4.70347 17.7964C5.04729 18.1403 5.51361 18.3334 5.99984 18.3334H14.2498C14.7361 18.3334 15.2024 18.1403 15.5462 17.7964C15.89 17.4526 16.0832 16.9863 16.0832 16.5001V15.5834" stroke="black" stroke-width="1.5" stroke-linecap="round" stroke-linejoin="round"/>
<path d="M19.1862 6.03635C19.5473 5.67532 19.7501 5.18567 19.7501 4.6751C19.7501 4.16453 19.5473 3.67487 19.1862 3.31385C18.8252 2.95282 18.3356 2.75 17.825 2.75C17.3144 2.75 16.8248 2.95282 16.4638 3.31385L8.75 11.0001V13.7501H11.5L19.1862 6.03635Z" stroke="black" stroke-width="1.5" stroke-linecap="round" stroke-linejoin="round"/>
<path d="M15.1665 4.58325L17.9165 7.33325" stroke="black" stroke-width="1.5" stroke-linecap="round" stroke-linejoin="round"/>
</svg>
