<svg width="22" height="22" viewBox="0 0 22 22" fill="none" xmlns="http://www.w3.org/2000/svg">
<path d="M6.4165 6.41675H5.49984C5.01361 6.41675 4.54729 6.6099 4.20347 6.95372C3.85966 7.29754 3.6665 7.76385 3.6665 8.25008V16.5001C3.6665 16.9863 3.85966 17.4526 4.20347 17.7964C4.54729 18.1403 5.01361 18.3334 5.49984 18.3334H13.7498C14.2361 18.3334 14.7024 18.1403 15.0462 17.7964C15.39 17.4526 15.5832 16.9863 15.5832 16.5001V15.5834" stroke="black" stroke-width="1.5" stroke-linecap="round" stroke-linejoin="round"/>
<path d="M18.6862 6.03635C19.0473 5.67532 19.2501 5.18567 19.2501 4.6751C19.2501 4.16453 19.0473 3.67487 18.6862 3.31385C18.3252 2.95282 17.8356 2.75 17.325 2.75C16.8144 2.75 16.3248 2.95282 15.9638 3.31385L8.25 11.0001V13.7501H11L18.6862 6.03635Z" stroke="black" stroke-width="1.5" stroke-linecap="round" stroke-linejoin="round"/>
<path d="M14.6665 4.58325L17.4165 7.33325" stroke="black" stroke-width="1.5" stroke-linecap="round" stroke-linejoin="round"/>
</svg>
