<svg width="202" height="349" viewBox="0 0 202 349" fill="none" xmlns="http://www.w3.org/2000/svg">
<ellipse cx="52.3375" cy="10.5032" rx="3.55232" ry="2.68293" fill="#704EF4"/>
<ellipse cx="115.815" cy="37.9754" rx="3.55232" ry="2.68293" fill="#704EF4"/>
<ellipse cx="165.547" cy="80.1356" rx="3.55232" ry="2.68293" fill="#704EF4"/>
<ellipse cx="192.951" cy="129.195" rx="3.55232" ry="2.68293" fill="#704EF4"/>
<ellipse cx="192.951" cy="222.714" rx="3.55232" ry="2.68293" fill="#704EF4"/>
<ellipse cx="163.13" cy="269.284" rx="3.55232" ry="2.68293" fill="#704EF4"/>
<ellipse cx="112.863" cy="311.898" rx="3.55232" ry="2.68293" fill="#704EF4"/>
<ellipse cx="48.234" cy="339.015" rx="3.55232" ry="2.68293" fill="#704EF4"/>
<ellipse cx="72.358" cy="17.8761" rx="2.0299" ry="1.5331" fill="#704EF4"/>
<ellipse cx="27.2203" cy="4.70449" rx="2.0299" ry="1.5331" fill="#704EF4"/>
<ellipse cx="2.59923" cy="1.60537" rx="2.0299" ry="1.5331" fill="#704EF4"/>
<ellipse cx="94.9264" cy="27.1735" rx="2.0299" ry="1.5331" fill="#704EF4"/>
<ellipse cx="133.577" cy="50.6234" rx="2.0299" ry="1.5331" fill="#704EF4"/>
<ellipse cx="148.8" cy="64.4213" rx="2.0299" ry="1.5331" fill="#704EF4"/>
<ellipse cx="176.205" cy="97.383" rx="2.0299" ry="1.5331" fill="#704EF4"/>
<ellipse cx="185.203" cy="111.626" rx="2.0299" ry="1.5331" fill="#704EF4"/>
<ellipse cx="199.565" cy="155.789" rx="2.0299" ry="1.5331" fill="#704EF4"/>
<ellipse cx="198.534" cy="199.334" rx="2.0299" ry="1.5331" fill="#704EF4"/>
<ellipse cx="185.339" cy="239.961" rx="2.0299" ry="1.5331" fill="#704EF4"/>
<ellipse cx="176.205" cy="255.293" rx="2.0299" ry="1.5331" fill="#704EF4"/>
<ellipse cx="147.246" cy="286.729" rx="2.0299" ry="1.5331" fill="#704EF4"/>
<ellipse cx="130.833" cy="299.901" rx="2.0299" ry="1.5331" fill="#704EF4"/>
<ellipse cx="91.8492" cy="323.145" rx="2.0299" ry="1.5331" fill="#704EF4"/>
<ellipse cx="69.2799" cy="332.442" rx="2.0299" ry="1.5331" fill="#704EF4"/>
<ellipse cx="24.1422" cy="344.839" rx="2.0299" ry="1.5331" fill="#704EF4"/>
<ellipse cx="2.59923" cy="347.163" rx="2.0299" ry="1.5331" fill="#704EF4"/>
</svg>
