<svg width="164" height="292" viewBox="0 0 164 292" fill="none" xmlns="http://www.w3.org/2000/svg">
<ellipse cx="161.728" cy="126.644" rx="1.53879" ry="1.16219" fill="white" fill-opacity="0.18"/>
<ellipse cx="161.728" cy="156.086" rx="1.53879" ry="1.16219" fill="white" fill-opacity="0.18"/>
<ellipse cx="7.84934" cy="1.90194" rx="1.53879" ry="1.16219" fill="white" fill-opacity="0.18"/>
<ellipse cx="28.3659" cy="6.55062" rx="1.53879" ry="1.16219" fill="white" fill-opacity="0.18"/>
<ellipse cx="45.8064" cy="11.9742" rx="1.53879" ry="1.16219" fill="white" fill-opacity="0.18"/>
<ellipse cx="64.2712" cy="18.9473" rx="1.53879" ry="1.16219" fill="white" fill-opacity="0.18"/>
<ellipse cx="81.7116" cy="26.6951" rx="1.53879" ry="1.16219" fill="white" fill-opacity="0.18"/>
<ellipse cx="97.0993" cy="35.9928" rx="1.53879" ry="1.16219" fill="white" fill-opacity="0.18"/>
<ellipse cx="111.462" cy="46.8399" rx="1.53879" ry="1.16219" fill="white" fill-opacity="0.18"/>
<ellipse cx="124.798" cy="57.6871" rx="1.53879" ry="1.16219" fill="white" fill-opacity="0.18"/>
<ellipse cx="136.082" cy="70.0836" rx="1.53879" ry="1.16219" fill="white" fill-opacity="0.18"/>
<ellipse cx="145.314" cy="84.0299" rx="1.53879" ry="1.16219" fill="white" fill-opacity="0.18"/>
<ellipse cx="152.496" cy="97.2015" rx="1.53879" ry="1.16219" fill="white" fill-opacity="0.18"/>
<ellipse cx="158.651" cy="111.922" rx="1.53879" ry="1.16219" fill="white" fill-opacity="0.18"/>
<ellipse cx="159.676" cy="171.582" rx="1.53879" ry="1.16219" fill="white" fill-opacity="0.18"/>
<ellipse cx="156.599" cy="186.303" rx="1.53879" ry="1.16219" fill="white" fill-opacity="0.18"/>
<ellipse cx="149.418" cy="200.249" rx="1.53879" ry="1.16219" fill="white" fill-opacity="0.18"/>
<ellipse cx="141.212" cy="213.42" rx="1.53879" ry="1.16219" fill="white" fill-opacity="0.18"/>
<ellipse cx="130.953" cy="227.367" rx="1.53879" ry="1.16219" fill="white" fill-opacity="0.18"/>
<ellipse cx="119.668" cy="238.989" rx="1.53879" ry="1.16219" fill="white" fill-opacity="0.18"/>
<ellipse cx="105.306" cy="250.61" rx="1.53879" ry="1.16219" fill="white" fill-opacity="0.18"/>
<ellipse cx="91.9695" cy="260.683" rx="1.53879" ry="1.16219" fill="white" fill-opacity="0.18"/>
<ellipse cx="75.5554" cy="269.206" rx="1.53879" ry="1.16219" fill="white" fill-opacity="0.18"/>
<ellipse cx="57.0905" cy="276.953" rx="1.53879" ry="1.16219" fill="white" fill-opacity="0.18"/>
<ellipse cx="38.6247" cy="283.152" rx="1.53879" ry="1.16219" fill="white" fill-opacity="0.18"/>
<ellipse cx="21.1853" cy="287.801" rx="1.53879" ry="1.16219" fill="white" fill-opacity="0.18"/>
<ellipse cx="1.69407" cy="290.125" rx="1.53879" ry="1.16219" fill="white" fill-opacity="0.18"/>
</svg>
