<svg width="24" height="25" viewBox="0 0 24 25" fill="none" xmlns="http://www.w3.org/2000/svg">
<path d="M12.0001 15.38C11.0901 15.38 10.3501 14.64 10.3501 13.73V11.26C10.3501 10.35 11.0901 9.60999 12.0001 9.60999C12.9101 9.60999 13.6501 10.35 13.6501 11.26V13.73C13.6501 14.64 12.9101 15.38 12.0001 15.38Z" stroke="#0D0B1C" stroke-width="1.5" stroke-linecap="round"/>
<path d="M16.98 13.9701C16.78 16.5501 14.62 18.5701 12 18.5701C9.24 18.5701 7 16.3301 7 13.5701V11.4301C7 8.67005 9.24 6.43005 12 6.43005C14.59 6.43005 16.72 8.40005 16.97 10.9201" stroke="#0D0B1C" stroke-width="1.5" stroke-linecap="round"/>
<path d="M15 2.5H17C20 2.5 22 4.5 22 7.5V9.5M2 9.5V7.5C2 4.5 4 2.5 7 2.5H9M15 22.5H17C20 22.5 22 20.5 22 17.5V15.5M2 15.5V17.5C2 20.5 4 22.5 7 22.5H9" stroke="#0D0B1C" stroke-width="1.5" stroke-miterlimit="10" stroke-linecap="round" stroke-linejoin="round"/>
</svg>
