<svg width="20" height="20" viewBox="0 0 20 20" fill="none" xmlns="http://www.w3.org/2000/svg">
<path fill-rule="evenodd" clip-rule="evenodd" d="M6.82561 4.23343C7.39804 3.16447 8.51303 2.49804 9.72561 2.50009C10.9596 2.49084 12.0978 3.16412 12.6839 4.25009L17.3839 12.9501C17.9415 13.9831 17.9147 15.2332 17.3132 16.2413C16.7118 17.2494 15.6245 17.8668 14.4506 17.8668H5.00061C3.82324 17.867 2.73305 17.2462 2.13259 16.2334C1.53213 15.2207 1.51047 13.9663 2.07561 12.9334L6.82561 4.23343ZM11.5589 4.84176C11.1975 4.16614 10.4918 3.74598 9.72561 3.75009C8.97063 3.75533 8.27808 4.17022 7.91728 4.83343L3.17561 13.5168C2.82145 14.1607 2.83428 14.9439 3.20934 15.5758C3.5844 16.2078 4.26574 16.5942 5.00061 16.5918H14.4506C15.1829 16.5873 15.8595 16.2002 16.2344 15.5713C16.6094 14.9423 16.6282 14.163 16.2839 13.5168L11.5589 4.84176Z" fill="white" fill-opacity="0.5"/>
<path d="M9.72561 12.5002C9.38043 12.5002 9.10061 12.78 9.10061 13.1252C9.10061 13.4704 9.38043 13.7502 9.72561 13.7502C9.89205 13.7525 10.0523 13.6873 10.17 13.5696C10.2878 13.4519 10.3529 13.2916 10.3506 13.1252C10.3506 12.9602 10.2845 12.8021 10.1671 12.6862C10.0496 12.5703 9.8906 12.5063 9.72561 12.5085V12.5002Z" fill="white" fill-opacity="0.5"/>
<path d="M9.72561 11.3585C9.38231 11.354 9.1051 11.0768 9.10061 10.7335V8.15019C9.10061 7.80501 9.38043 7.52519 9.72561 7.52519C10.0708 7.52519 10.3506 7.80501 10.3506 8.15019V10.7335C10.3506 11.0787 10.0708 11.3585 9.72561 11.3585Z" fill="white" fill-opacity="0.5"/>
</svg>
