<svg width="20" height="20" viewBox="0 0 20 20" fill="none" xmlns="http://www.w3.org/2000/svg">
<path fill-rule="evenodd" clip-rule="evenodd" d="M9.72548 7.34865H9.80048V7.36532C10.3484 7.38666 10.8531 7.66845 11.1588 8.12365C11.5708 8.70226 11.5708 9.47838 11.1588 10.057C10.8531 10.5133 10.3492 10.7978 9.80048 10.8237H9.72548C9.07601 10.8687 8.45566 10.5477 8.11723 9.99154C7.7788 9.43538 7.7788 8.73692 8.11723 8.18077C8.45566 7.62462 9.07601 7.30365 9.72548 7.34865ZM10.1588 8.82365C10.0803 8.69758 9.94815 8.61461 9.80048 8.59865H9.75881C9.56943 8.57384 9.38281 8.66095 9.28022 8.82206C9.17762 8.98318 9.17762 9.18913 9.28022 9.35024C9.38281 9.51135 9.56943 9.59846 9.75881 9.57365H9.80048C9.94587 9.55733 10.0768 9.47815 10.1588 9.35698C10.2812 9.20026 10.2812 8.98038 10.1588 8.82365Z" fill="white" fill-opacity="0.5"/>
<path d="M12.8338 11.707C12.6985 11.7076 12.5667 11.6637 12.4588 11.582C12.3209 11.4876 12.2266 11.342 12.1969 11.1776C12.1671 11.0132 12.2044 10.8437 12.3005 10.707C13.0272 9.76098 13.0272 8.44465 12.3005 7.49865C12.1264 7.22741 12.1838 6.86871 12.4338 6.66532C12.5666 6.5645 12.7346 6.52178 12.8995 6.5469C13.0644 6.57203 13.212 6.66285 13.3088 6.79865C14.3645 8.18748 14.3645 10.1098 13.3088 11.4987C13.1881 11.6336 13.0148 11.7096 12.8338 11.707Z" fill="white" fill-opacity="0.5"/>
<path d="M15.8005 14.0737C15.6628 14.0731 15.5287 14.0294 15.4171 13.9487C15.2847 13.8466 15.1986 13.6956 15.1782 13.5296C15.1579 13.3636 15.2049 13.1964 15.3088 13.0653C17.126 10.7362 17.126 7.46946 15.3088 5.14032C15.1249 4.87609 15.1718 4.51541 15.4171 4.30698C15.6916 4.09528 16.0853 4.14356 16.3005 4.41532C18.468 7.19556 18.468 11.0934 16.3005 13.8737C16.1725 14.0124 15.9888 14.0859 15.8005 14.0737Z" fill="white" fill-opacity="0.5"/>
<path d="M14.3255 12.8903C14.1964 12.8847 14.0717 12.8413 13.9671 12.7653C13.7108 12.5664 13.6492 12.2044 13.8255 11.932C15.0989 10.2949 15.0989 8.00241 13.8255 6.36532C13.6455 6.09699 13.6997 5.73569 13.9505 5.53198C14.1974 5.31462 14.5714 5.32929 14.8005 5.56532C15.5846 6.57934 16.0097 7.82514 16.0088 9.10698C16.0059 10.3882 15.5813 11.6328 14.8005 12.6487C14.6869 12.797 14.5122 12.8859 14.3255 12.8903Z" fill="white" fill-opacity="0.5"/>
<path d="M6.75047 11.707C6.55344 11.7083 6.36763 11.6154 6.25047 11.457C5.19624 10.0646 5.19624 8.14106 6.25047 6.74865C6.38445 6.57002 6.60355 6.47643 6.82523 6.50314C7.04692 6.52985 7.23752 6.6728 7.32523 6.87814C7.41295 7.08348 7.38445 7.32002 7.25047 7.49865C6.52243 8.44729 6.52243 9.76668 7.25047 10.7153C7.45103 10.9948 7.39184 11.3833 7.11714 11.5903C7.00904 11.6644 6.88151 11.705 6.75047 11.707Z" fill="white" fill-opacity="0.5"/>
<path d="M3.79214 14.0737C3.59716 14.0744 3.41272 13.9852 3.29214 13.832C1.12463 11.0517 1.12463 7.15389 3.29214 4.37365C3.51161 4.1298 3.88226 4.09715 4.14099 4.29887C4.39971 4.50058 4.45843 4.86801 4.27547 5.14032C2.45987 7.47313 2.45987 10.7408 4.27547 13.0737C4.48629 13.3454 4.43787 13.7365 4.16714 13.9487C4.0579 14.0277 3.92699 14.0714 3.79214 14.0737Z" fill="white" fill-opacity="0.5"/>
<path d="M5.28381 12.8903C5.08882 12.891 4.90439 12.8019 4.78381 12.6487C4.00128 11.6306 3.57655 10.3827 3.57547 9.09865C3.58061 7.8176 4.01155 6.57463 4.80047 5.56532C4.93122 5.37504 5.15622 5.27234 5.38563 5.29822C5.61505 5.32409 5.81151 5.47433 5.89659 5.68895C5.98167 5.90357 5.94151 6.14762 5.79214 6.32365C4.51875 7.96074 4.51875 10.2532 5.79214 11.8903C5.88818 12.027 5.92549 12.1965 5.89574 12.3609C5.86599 12.5253 5.77166 12.6709 5.63381 12.7653C5.53277 12.842 5.41055 12.8856 5.28381 12.8903Z" fill="white" fill-opacity="0.5"/>
<path d="M9.80048 16.3987C9.45717 16.3942 9.17996 16.117 9.17548 15.7737V12.4403C9.17548 12.0951 9.4553 11.8153 9.80048 11.8153C10.1457 11.8153 10.4255 12.0951 10.4255 12.4403V15.7737C10.421 16.117 10.1438 16.3942 9.80048 16.3987Z" fill="white" fill-opacity="0.5"/>
</svg>
