<svg width="20" height="20" viewBox="0 0 20 20" fill="none" xmlns="http://www.w3.org/2000/svg">
<path fill-rule="evenodd" clip-rule="evenodd" d="M12.9165 11.6667H14.7915C16.5174 11.6667 17.9165 13.0659 17.9165 14.7917C17.9165 16.5176 16.5174 17.9167 14.7915 17.9167C13.0656 17.9167 11.6665 16.5176 11.6665 14.7917V12.9167H7.9165V14.7917C7.9165 16.5176 6.51739 17.9167 4.7915 17.9167C3.06561 17.9167 1.6665 16.5176 1.6665 14.7917C1.6665 13.0659 3.06561 11.6667 4.7915 11.6667H6.6665V7.91675H4.7915C3.06561 7.91675 1.6665 6.51764 1.6665 4.79175C1.6665 3.06586 3.06561 1.66675 4.7915 1.66675C6.51739 1.66675 7.9165 3.06586 7.9165 4.79175V6.66675H11.6665V4.79175C11.6665 3.06586 13.0656 1.66675 14.7915 1.66675C16.5174 1.66675 17.9165 3.06586 17.9165 4.79175C17.9165 6.51764 16.5174 7.91675 14.7915 7.91675H12.9165V11.6667ZM14.7915 2.91675C13.756 2.91675 12.9165 3.75621 12.9165 4.79175V6.66675H14.7915C15.827 6.66675 16.6665 5.82728 16.6665 4.79175C16.6665 3.75621 15.827 2.91675 14.7915 2.91675ZM6.6665 14.7917C6.6665 15.8273 5.82704 16.6667 4.7915 16.6667C3.75597 16.6667 2.9165 15.8273 2.9165 14.7917C2.9165 13.7562 3.75597 12.9167 4.7915 12.9167H6.6665V14.7917ZM4.7915 6.66675H6.6665V4.79175C6.6665 3.75621 5.82704 2.91675 4.7915 2.91675C3.75597 2.91675 2.9165 3.75621 2.9165 4.79175C2.9165 5.82728 3.75597 6.66675 4.7915 6.66675ZM11.6665 11.6667H7.9165V7.91675H11.6665V11.6667ZM12.9165 14.7917C12.9165 15.8273 13.756 16.6667 14.7915 16.6667C15.827 16.6667 16.6665 15.8273 16.6665 14.7917C16.6665 13.7562 15.827 12.9167 14.7915 12.9167H12.9165V14.7917Z" fill="white" fill-opacity="0.5"/>
</svg>
