<svg width="41" height="40" viewBox="0 0 41 40" fill="none" xmlns="http://www.w3.org/2000/svg">
<g clip-path="url(#clip0_61_943)">
<path d="M40.5 20C40.5 8.95432 31.5457 0 20.5 0C9.45432 0 0.5 8.95432 0.5 20C0.5 31.0457 9.45432 40 20.5 40C31.5457 40 40.5 31.0457 40.5 20Z" fill="#2C72C4"/>
<path d="M6.60373 13.3273L5.72032 12.62C5.67383 12.5728 5.67383 12.5257 5.67383 12.4313C8.51004 6.63107 14.1825 3 20.4593 3C27.9915 3 33.4315 6.53675 35.8027 12.9972C35.8492 13.0444 35.8027 13.1387 35.7563 13.1387L34.9658 13.516C34.9658 13.516 34.9658 13.516 34.9193 13.516C34.9193 13.516 34.9193 13.516 34.8728 13.516C34.8728 13.4688 34.8263 13.4688 34.8263 13.4216C32.6876 7.76283 27.3406 4.36754 20.5988 4.36754C14.7869 4.36754 9.25396 7.95146 6.78971 13.2802C6.74322 13.3273 6.74322 13.3745 6.69672 13.3745C6.65023 13.3745 6.60373 13.3745 6.60373 13.3273ZM36.9651 36.2926C37.0116 36.3398 37.0116 36.387 36.9651 36.4341C36.9651 36.4813 36.9186 36.5284 36.8721 36.5284H27.6196C27.5731 36.5284 27.5731 36.4813 27.5266 36.4813L27.0151 35.8682L26.3642 35.1609V35.1137L25.9923 34.7365L25.6668 34.3121C25.6668 34.3121 25.6668 34.3121 25.6203 34.3121L23.621 32.0014L21.9937 30.2094L17.0652 24.5506C17.0187 24.5506 17.0187 24.4563 17.0187 24.4092C17.0652 24.4092 17.1117 24.362 17.1582 24.362H26.4107C26.4107 24.362 26.4572 24.362 26.5037 24.4092L28.2705 26.3897C28.7355 25.7295 29.1074 24.9279 29.3864 24.0791C29.8514 22.853 30.0373 21.4854 30.0373 20.0236C30.0373 20.0236 30.0373 20.0236 30.0373 19.9764C30.0373 18.5146 29.8514 17.147 29.3864 15.9209C28.0845 12.0541 24.9694 9.93204 20.6918 9.93204C15.5308 9.93204 11.2998 14.4591 11.2998 20.0236C11.2998 25.5409 15.5308 30.068 20.6918 30.068C20.7848 30.068 20.9243 30.068 21.0638 30.068C21.1102 30.068 21.1103 30.068 21.1567 30.1151L26.3177 36.0097C26.3642 36.0097 26.3642 36.0569 26.3642 36.104C26.3642 36.1512 26.3177 36.1983 26.2712 36.1983C24.5044 36.7642 22.5516 37 20.4593 37C14.0895 37 8.23107 33.1803 5.53434 27.2386L5.34836 26.767C4.41846 24.6449 4 22.3343 4 20.0236V19.9764C4 17.6657 4.41846 15.4022 5.34836 13.233L5.39486 13.1859C5.44135 13.1859 5.48785 13.1859 5.53434 13.1859L6.9292 14.3648C9.16097 8.61165 14.5544 4.93343 20.5988 4.93343C27.4801 4.93343 32.5481 8.37587 34.5009 14.3648L35.8957 13.7046C35.9422 13.7046 35.9887 13.7046 36.0352 13.7046C36.0352 13.7517 36.0817 13.7517 36.0817 13.7989C36.2677 14.4591 36.4537 15.1664 36.5932 15.8266C36.8721 17.1942 36.9651 18.5617 36.9651 20.0236C36.9651 21.4383 36.8721 22.853 36.5932 24.1734C36.4537 24.8336 36.2677 25.5409 36.0817 26.2011L35.9422 26.6727C35.2448 28.6533 34.2684 30.3509 33.013 31.8128L36.9651 36.2926Z" fill="white"/>
</g>
<defs>
<clipPath id="clip0_61_943">
<rect width="40" height="40" fill="white" transform="translate(0.5)"/>
</clipPath>
</defs>
</svg>
