<svg width="18" height="18" viewBox="0 0 18 18" fill="none" xmlns="http://www.w3.org/2000/svg">
<g clip-path="url(#clip0_63_1106)">
<g filter="url(#filter0_d_63_1106)">
<path d="M9.16451 1.5H8.83451C8.43669 1.5 8.05516 1.65804 7.77385 1.93934C7.49255 2.22064 7.33451 2.60218 7.33451 3V3.135C7.33424 3.39804 7.26481 3.65639 7.13317 3.88413C7.00153 4.11186 6.81232 4.30098 6.58451 4.4325L6.26201 4.62C6.03398 4.75165 5.77532 4.82096 5.51201 4.82096C5.24871 4.82096 4.99004 4.75165 4.76201 4.62L4.64951 4.56C4.30531 4.36145 3.89639 4.30758 3.51251 4.41023C3.12864 4.51288 2.80118 4.76365 2.60201 5.1075L2.43701 5.3925C2.23846 5.7367 2.1846 6.14562 2.28724 6.5295C2.38989 6.91337 2.64066 7.24084 2.98451 7.44L3.09701 7.515C3.32372 7.64588 3.51223 7.83382 3.6438 8.06012C3.77537 8.28643 3.84543 8.54323 3.84701 8.805V9.1875C3.84806 9.45182 3.77925 9.71171 3.64755 9.94088C3.51584 10.17 3.32592 10.3603 3.09701 10.4925L2.98451 10.56C2.64066 10.7592 2.38989 11.0866 2.28724 11.4705C2.1846 11.8544 2.23846 12.2633 2.43701 12.6075L2.60201 12.8925C2.80118 13.2363 3.12864 13.4871 3.51251 13.5898C3.89639 13.6924 4.30531 13.6386 4.64951 13.44L4.76201 13.38C4.99004 13.2483 5.24871 13.179 5.51201 13.179C5.77532 13.179 6.03398 13.2483 6.26201 13.38L6.58451 13.5675C6.81232 13.699 7.00153 13.8881 7.13317 14.1159C7.26481 14.3436 7.33424 14.602 7.33451 14.865V15C7.33451 15.3978 7.49255 15.7794 7.77385 16.0607C8.05516 16.342 8.43669 16.5 8.83451 16.5H9.16451C9.56234 16.5 9.94387 16.342 10.2252 16.0607C10.5065 15.7794 10.6645 15.3978 10.6645 15V14.865C10.6648 14.602 10.7342 14.3436 10.8659 14.1159C10.9975 13.8881 11.1867 13.699 11.4145 13.5675L11.737 13.38C11.965 13.2483 12.2237 13.179 12.487 13.179C12.7503 13.179 13.009 13.2483 13.237 13.38L13.3495 13.44C13.6937 13.6386 14.1026 13.6924 14.4865 13.5898C14.8704 13.4871 15.1979 13.2363 15.397 12.8925L15.562 12.6C15.7606 12.2558 15.8144 11.8469 15.7118 11.463C15.6091 11.0791 15.3584 10.7517 15.0145 10.5525L14.902 10.4925C14.6731 10.3603 14.4832 10.17 14.3515 9.94088C14.2198 9.71171 14.151 9.45182 14.152 9.1875V8.8125C14.151 8.54818 14.2198 8.28829 14.3515 8.05912C14.4832 7.82995 14.6731 7.63966 14.902 7.5075L15.0145 7.44C15.3584 7.24084 15.6091 6.91337 15.7118 6.5295C15.8144 6.14562 15.7606 5.7367 15.562 5.3925L15.397 5.1075C15.1979 4.76365 14.8704 4.51288 14.4865 4.41023C14.1026 4.30758 13.6937 4.36145 13.3495 4.56L13.237 4.62C13.009 4.75165 12.7503 4.82096 12.487 4.82096C12.2237 4.82096 11.965 4.75165 11.737 4.62L11.4145 4.4325C11.1867 4.30098 10.9975 4.11186 10.8659 3.88413C10.7342 3.65639 10.6648 3.39804 10.6645 3.135V3C10.6645 2.60218 10.5065 2.22064 10.2252 1.93934C9.94387 1.65804 9.56234 1.5 9.16451 1.5Z" stroke="#BABABA" stroke-width="2" stroke-linecap="round" stroke-linejoin="round" shape-rendering="crispEdges"/>
</g>
<g filter="url(#filter1_d_63_1106)">
<path d="M9 11.25C10.2426 11.25 11.25 10.2426 11.25 9C11.25 7.75736 10.2426 6.75 9 6.75C7.75736 6.75 6.75 7.75736 6.75 9C6.75 10.2426 7.75736 11.25 9 11.25Z" stroke="#BABABA" stroke-width="2" stroke-linecap="round" stroke-linejoin="round" shape-rendering="crispEdges"/>
</g>
</g>
<defs>
<filter id="filter0_d_63_1106" x="-2.76367" y="0.5" width="23.5264" height="25" filterUnits="userSpaceOnUse" color-interpolation-filters="sRGB">
<feFlood flood-opacity="0" result="BackgroundImageFix"/>
<feColorMatrix in="SourceAlpha" type="matrix" values="0 0 0 0 0 0 0 0 0 0 0 0 0 0 0 0 0 0 127 0" result="hardAlpha"/>
<feOffset dy="4"/>
<feGaussianBlur stdDeviation="2"/>
<feComposite in2="hardAlpha" operator="out"/>
<feColorMatrix type="matrix" values="0 0 0 0 0 0 0 0 0 0 0 0 0 0 0 0 0 0 0.25 0"/>
<feBlend mode="normal" in2="BackgroundImageFix" result="effect1_dropShadow_63_1106"/>
<feBlend mode="normal" in="SourceGraphic" in2="effect1_dropShadow_63_1106" result="shape"/>
</filter>
<filter id="filter1_d_63_1106" x="1.75" y="5.75" width="14.5" height="14.5" filterUnits="userSpaceOnUse" color-interpolation-filters="sRGB">
<feFlood flood-opacity="0" result="BackgroundImageFix"/>
<feColorMatrix in="SourceAlpha" type="matrix" values="0 0 0 0 0 0 0 0 0 0 0 0 0 0 0 0 0 0 127 0" result="hardAlpha"/>
<feOffset dy="4"/>
<feGaussianBlur stdDeviation="2"/>
<feComposite in2="hardAlpha" operator="out"/>
<feColorMatrix type="matrix" values="0 0 0 0 0 0 0 0 0 0 0 0 0 0 0 0 0 0 0.25 0"/>
<feBlend mode="normal" in2="BackgroundImageFix" result="effect1_dropShadow_63_1106"/>
<feBlend mode="normal" in="SourceGraphic" in2="effect1_dropShadow_63_1106" result="shape"/>
</filter>
<clipPath id="clip0_63_1106">
<rect width="18" height="18" fill="white"/>
</clipPath>
</defs>
</svg>
