<svg width="40" height="98" viewBox="0 0 40 98" fill="none" xmlns="http://www.w3.org/2000/svg">
<rect width="40" height="98" fill="#1E1E1E"/>
<g clip-path="url(#clip0_77_316)">
<path d="M20 58.5C24.1421 58.5 27.5 55.1421 27.5 51C27.5 46.8579 24.1421 43.5 20 43.5C15.8579 43.5 12.5 46.8579 12.5 51C12.5 55.1421 15.8579 58.5 20 58.5Z" stroke="#BABABA" stroke-width="2" stroke-linecap="round" stroke-linejoin="round"/>
<path d="M17.8174 48.7499C17.9937 48.2487 18.3417 47.826 18.7998 47.5568C19.258 47.2876 19.7966 47.1891 20.3203 47.279C20.844 47.3688 21.319 47.6411 21.6612 48.0476C22.0034 48.4541 22.1907 48.9686 22.1899 49.4999C22.1899 50.9999 19.9399 51.7499 19.9399 51.7499" stroke="#BABABA" stroke-width="2" stroke-linecap="round" stroke-linejoin="round"/>
<path d="M20 54.75H20.0075" stroke="#BABABA" stroke-width="2" stroke-linecap="round" stroke-linejoin="round"/>
</g>
<path d="M20.165 74.5H19.835C19.4372 74.5 19.0556 74.658 18.7743 74.9393C18.493 75.2206 18.335 75.6022 18.335 76V76.135C18.3347 76.398 18.2653 76.6564 18.1337 76.8841C18.002 77.1119 17.8128 77.301 17.585 77.4325L17.2625 77.62C17.0345 77.7517 16.7758 77.821 16.5125 77.821C16.2492 77.821 15.9905 77.7517 15.7625 77.62L15.65 77.56C15.3058 77.3614 14.8969 77.3076 14.513 77.4102C14.1291 77.5129 13.8017 77.7637 13.6025 78.1075L13.4375 78.3925C13.2389 78.7367 13.1851 79.1456 13.2877 79.5295C13.3904 79.9134 13.6412 80.2408 13.985 80.44L14.0975 80.515C14.3242 80.6459 14.5127 80.8338 14.6443 81.0601C14.7759 81.2864 14.8459 81.5432 14.8475 81.805V82.1875C14.8486 82.4518 14.7797 82.7117 14.648 82.9409C14.5163 83.17 14.3264 83.3603 14.0975 83.4925L13.985 83.56C13.6412 83.7592 13.3904 84.0866 13.2877 84.4705C13.1851 84.8544 13.2389 85.2633 13.4375 85.6075L13.6025 85.8925C13.8017 86.2363 14.1291 86.4871 14.513 86.5898C14.8969 86.6924 15.3058 86.6386 15.65 86.44L15.7625 86.38C15.9905 86.2483 16.2492 86.179 16.5125 86.179C16.7758 86.179 17.0345 86.2483 17.2625 86.38L17.585 86.5675C17.8128 86.699 18.002 86.8881 18.1337 87.1159C18.2653 87.3436 18.3347 87.602 18.335 87.865V88C18.335 88.3978 18.493 88.7794 18.7743 89.0607C19.0556 89.342 19.4372 89.5 19.835 89.5H20.165C20.5628 89.5 20.9444 89.342 21.2257 89.0607C21.507 88.7794 21.665 88.3978 21.665 88V87.865C21.6653 87.602 21.7347 87.3436 21.8663 87.1159C21.998 86.8881 22.1872 86.699 22.415 86.5675L22.7375 86.38C22.9655 86.2483 23.2242 86.179 23.4875 86.179C23.7508 86.179 24.0095 86.2483 24.2375 86.38L24.35 86.44C24.6942 86.6386 25.1031 86.6924 25.487 86.5898C25.8709 86.4871 26.1983 86.2363 26.3975 85.8925L26.5625 85.6C26.7611 85.2558 26.8149 84.8469 26.7123 84.463C26.6096 84.0791 26.3588 83.7517 26.015 83.5525L25.9025 83.4925C25.6736 83.3603 25.4837 83.17 25.352 82.9409C25.2203 82.7117 25.1515 82.4518 25.1525 82.1875V81.8125C25.1515 81.5482 25.2203 81.2883 25.352 81.0591C25.4837 80.83 25.6736 80.6397 25.9025 80.5075L26.015 80.44C26.3588 80.2408 26.6096 79.9134 26.7123 79.5295C26.8149 79.1456 26.7611 78.7367 26.5625 78.3925L26.3975 78.1075C26.1983 77.7637 25.8709 77.5129 25.487 77.4102C25.1031 77.3076 24.6942 77.3614 24.35 77.56L24.2375 77.62C24.0095 77.7517 23.7508 77.821 23.4875 77.821C23.2242 77.821 22.9655 77.7517 22.7375 77.62L22.415 77.4325C22.1872 77.301 21.998 77.1119 21.8663 76.8841C21.7347 76.6564 21.6653 76.398 21.665 76.135V76C21.665 75.6022 21.507 75.2206 21.2257 74.9393C20.9444 74.658 20.5628 74.5 20.165 74.5V74.5Z" stroke="#BABABA" stroke-width="2" stroke-linecap="round" stroke-linejoin="round"/>
<path d="M20 84.25C21.2426 84.25 22.25 83.2426 22.25 82C22.25 80.7574 21.2426 79.75 20 79.75C18.7574 79.75 17.75 80.7574 17.75 82C17.75 83.2426 18.7574 84.25 20 84.25Z" stroke="#BABABA" stroke-width="2" stroke-linecap="round" stroke-linejoin="round"/>
<path d="M26.75 25.4V14.6C26.75 13.6063 26.4538 13.25 25.625 13.25H14.375C13.5462 13.25 13.25 13.6063 13.25 14.6V25.4C13.25 26.3945 13.5462 26.75 14.375 26.75H25.625C26.4538 26.75 26.75 26.3945 26.75 25.4Z" stroke="#BABABA" stroke-width="2" stroke-linecap="round" stroke-linejoin="round"/>
<path d="M20 21.5V23.75M26.75 16.25H27.875M26.75 23H27.875M22.2253 18.92C22.2748 19.215 22.2651 19.5169 22.1965 19.808C22.128 20.0992 22.0022 20.3738 21.8263 20.6157C21.6504 20.8576 21.4281 21.0621 21.1723 21.2171C20.9164 21.372 20.6323 21.4745 20.3364 21.5183C20.0405 21.5622 19.7389 21.5467 19.4491 21.4726C19.1593 21.3985 18.8872 21.2674 18.6487 21.0869C18.4102 20.9064 18.21 20.6802 18.06 20.4215C17.9099 20.1627 17.813 19.8767 17.7748 19.58C17.6995 18.9956 17.8566 18.4049 18.2121 17.935C18.5677 17.4651 19.0934 17.1535 19.6763 17.067C20.2592 16.9806 20.8527 17.1263 21.3294 17.4727C21.806 17.8192 22.1277 18.3389 22.2253 18.92V18.92Z" stroke="#BABABA" stroke-width="2" stroke-linecap="round" stroke-linejoin="round"/>
<defs>
<clipPath id="clip0_77_316">
<rect width="18" height="18" fill="white" transform="translate(11 42)"/>
</clipPath>
</defs>
</svg>
