<svg width="18" height="18" viewBox="0 0 18 18" fill="none" xmlns="http://www.w3.org/2000/svg">
<g clip-path="url(#clip0_63_1103)">
<g filter="url(#filter0_d_63_1103)">
<path d="M15.75 14.4V3.6C15.75 2.60625 15.4537 2.25 14.625 2.25H3.375C2.54625 2.25 2.25 2.60625 2.25 3.6V14.4C2.25 15.3945 2.54625 15.75 3.375 15.75H14.625C15.4537 15.75 15.75 15.3945 15.75 14.4Z" stroke="#BABABA" stroke-width="2" stroke-linecap="round" stroke-linejoin="round" shape-rendering="crispEdges"/>
</g>
<g filter="url(#filter1_d_63_1103)">
<path d="M8.99954 10.5V12.75M15.7495 5.25H16.8745M15.7495 12H16.8745M11.2248 7.92C11.2743 8.21497 11.2646 8.51687 11.1961 8.80802C11.1276 9.09918 11.0017 9.37375 10.8258 9.61569C10.6499 9.85762 10.4276 10.0621 10.1718 10.2171C9.91595 10.372 9.6318 10.4745 9.33593 10.5183C9.04006 10.5622 8.73841 10.5467 8.44862 10.4726C8.15883 10.3985 7.88672 10.2674 7.64821 10.0869C7.40969 9.90644 7.20955 9.68021 7.0595 9.42147C6.90944 9.16272 6.81248 8.87666 6.77429 8.58C6.69904 7.99556 6.85607 7.40493 7.21164 6.93503C7.5672 6.46513 8.09292 6.15347 8.67581 6.06703C9.2587 5.98059 9.85223 6.12626 10.3289 6.47275C10.8055 6.81924 11.1272 7.33888 11.2248 7.92V7.92Z" stroke="#BABABA" stroke-width="2" stroke-linecap="round" stroke-linejoin="round" shape-rendering="crispEdges"/>
</g>
</g>
<defs>
<filter id="filter0_d_63_1103" x="-2.75" y="1.25" width="23.5" height="23.5" filterUnits="userSpaceOnUse" color-interpolation-filters="sRGB">
<feFlood flood-opacity="0" result="BackgroundImageFix"/>
<feColorMatrix in="SourceAlpha" type="matrix" values="0 0 0 0 0 0 0 0 0 0 0 0 0 0 0 0 0 0 127 0" result="hardAlpha"/>
<feOffset dy="4"/>
<feGaussianBlur stdDeviation="2"/>
<feComposite in2="hardAlpha" operator="out"/>
<feColorMatrix type="matrix" values="0 0 0 0 0 0 0 0 0 0 0 0 0 0 0 0 0 0 0.25 0"/>
<feBlend mode="normal" in2="BackgroundImageFix" result="effect1_dropShadow_63_1103"/>
<feBlend mode="normal" in="SourceGraphic" in2="effect1_dropShadow_63_1103" result="shape"/>
</filter>
<filter id="filter1_d_63_1103" x="1.75586" y="4.25" width="20.1191" height="17.5" filterUnits="userSpaceOnUse" color-interpolation-filters="sRGB">
<feFlood flood-opacity="0" result="BackgroundImageFix"/>
<feColorMatrix in="SourceAlpha" type="matrix" values="0 0 0 0 0 0 0 0 0 0 0 0 0 0 0 0 0 0 127 0" result="hardAlpha"/>
<feOffset dy="4"/>
<feGaussianBlur stdDeviation="2"/>
<feComposite in2="hardAlpha" operator="out"/>
<feColorMatrix type="matrix" values="0 0 0 0 0 0 0 0 0 0 0 0 0 0 0 0 0 0 0.25 0"/>
<feBlend mode="normal" in2="BackgroundImageFix" result="effect1_dropShadow_63_1103"/>
<feBlend mode="normal" in="SourceGraphic" in2="effect1_dropShadow_63_1103" result="shape"/>
</filter>
<clipPath id="clip0_63_1103">
<rect width="18" height="18" fill="white"/>
</clipPath>
</defs>
</svg>
