<svg width="15" height="15" viewBox="0 0 15 15" fill="none" xmlns="http://www.w3.org/2000/svg">
<path d="M7.4091 0.25C7.54911 0.24991 7.68636 0.289014 7.8053 0.362887C7.92424 0.43676 8.02012 0.542452 8.0821 0.668L9.9641 4.483L14.1741 5.095C14.3126 5.11511 14.4426 5.17355 14.5496 5.26372C14.6566 5.35388 14.7363 5.47218 14.7795 5.60523C14.8228 5.73829 14.828 5.8808 14.7945 6.01665C14.761 6.1525 14.6902 6.27628 14.5901 6.374L11.5441 9.344L12.2631 13.536C12.2864 13.6738 12.2708 13.8154 12.218 13.9449C12.1652 14.0743 12.0773 14.1865 11.9642 14.2687C11.8512 14.3509 11.7174 14.3999 11.578 14.4102C11.4386 14.4205 11.299 14.3917 11.1751 14.327L7.4091 12.347L3.6431 14.327C3.51929 14.392 3.37977 14.4211 3.24029 14.411C3.10081 14.4009 2.96694 14.352 2.85378 14.2699C2.74062 14.1877 2.65269 14.0755 2.59991 13.946C2.54713 13.8165 2.53161 13.6749 2.5551 13.537L3.2751 9.343L0.2271 6.374C0.126666 6.27632 0.0555992 6.15247 0.0219518 6.01647C-0.0116957 5.88047 -0.00657816 5.73777 0.0367245 5.60453C0.0800271 5.47129 0.159783 5.35284 0.266956 5.26261C0.374128 5.17238 0.504431 5.11397 0.6431 5.094L4.8531 4.483L6.7361 0.668C6.79808 0.542452 6.89396 0.43676 7.0129 0.362887C7.13184 0.289014 7.26909 0.24991 7.4091 0.25ZM7.4091 2.695L6.0241 5.5C5.97031 5.6089 5.89089 5.70311 5.79264 5.77453C5.6944 5.84595 5.58028 5.89244 5.4601 5.91L2.3631 6.36L4.6031 8.544C4.69025 8.62886 4.75546 8.73365 4.79309 8.84933C4.83072 8.96501 4.83964 9.0881 4.8191 9.208L4.2911 12.292L7.0601 10.836C7.16773 10.7794 7.2875 10.7499 7.4091 10.7499C7.5307 10.7499 7.65047 10.7794 7.7581 10.836L10.5281 12.292L9.9981 9.208C9.97756 9.0881 9.98648 8.96501 10.0241 8.84933C10.0617 8.73365 10.1269 8.62886 10.2141 8.544L12.4541 6.361L9.3581 5.911C9.23792 5.89344 9.1238 5.84695 9.02556 5.77553C8.92731 5.70411 8.84788 5.6099 8.7941 5.501L7.4091 2.695Z" fill="#8B949E"/>
</svg>
