<svg width="10" height="10" viewBox="0 0 10 10" fill="none" xmlns="http://www.w3.org/2000/svg">
<path d="M0.720011 0.720058C0.860637 0.579608 1.05126 0.500718 1.25001 0.500718C1.44876 0.500718 1.63939 0.579608 1.78001 0.720058L5.00001 3.94006L8.22001 0.720058C8.31168 0.621333 8.42829 0.549162 8.55754 0.511148C8.68678 0.473134 8.82389 0.470684 8.95442 0.504057C9.08494 0.537431 9.20405 0.605391 9.29919 0.700778C9.39433 0.796165 9.46198 0.915448 9.49501 1.04606C9.52843 1.17643 9.5261 1.31341 9.48826 1.44257C9.45043 1.57173 9.37849 1.68832 9.28001 1.78006L6.06001 5.00006L9.28001 8.22006C9.37874 8.31173 9.45091 8.42833 9.48892 8.55758C9.52694 8.68683 9.52938 8.82394 9.49601 8.95446C9.46264 9.08499 9.39468 9.20409 9.29929 9.29923C9.2039 9.39437 9.08462 9.46202 8.95401 9.49506C8.82364 9.52847 8.68666 9.52614 8.5575 9.48831C8.42834 9.45048 8.31175 9.37854 8.22001 9.28006L5.00001 6.06006L1.78001 9.28006C1.63775 9.41247 1.4497 9.48457 1.25538 9.48121C1.06106 9.47786 0.875615 9.3993 0.738011 9.26206C0.600768 9.12445 0.522213 8.939 0.518856 8.74469C0.515499 8.55037 0.587603 8.36232 0.720011 8.22006L3.94001 5.00006L0.720011 1.78006C0.579561 1.63943 0.500671 1.44881 0.500671 1.25006C0.500671 1.05131 0.579561 0.860683 0.720011 0.720058Z" fill="white"/>
</svg>
