<svg width="23" height="23" viewBox="0 0 23 23" fill="none" xmlns="http://www.w3.org/2000/svg">
<path d="M11.5 0.0699463C17.8538 0.0699463 23 5.31425 23 11.7891C22.9994 14.2445 22.2432 16.6379 20.8378 18.6325C19.4324 20.627 17.4486 22.1222 15.1656 22.9076C14.5906 23.0247 14.375 22.6585 14.375 22.3509C14.375 21.9554 14.3894 20.6956 14.3894 19.1281C14.3894 18.0295 14.03 17.3263 13.6131 16.9601C16.1719 16.6671 18.86 15.671 18.86 11.1738C18.86 9.8847 18.4144 8.84463 17.6812 8.02429C17.7962 7.73131 18.1987 6.5301 17.5662 4.91873C17.5662 4.91873 16.6031 4.59645 14.4038 6.11994C13.4838 5.85626 12.5063 5.72442 11.5288 5.72442C10.5513 5.72442 9.57375 5.85626 8.65375 6.11994C6.45438 4.6111 5.49125 4.91873 5.49125 4.91873C4.85875 6.5301 5.26125 7.73131 5.37625 8.02429C4.64313 8.84463 4.1975 9.89935 4.1975 11.1738C4.1975 15.6564 6.87125 16.6671 9.43 16.9601C9.09938 17.2531 8.7975 17.7658 8.69688 18.5275C8.03563 18.8352 6.3825 19.3332 5.3475 17.5607C5.13188 17.2091 4.485 16.3449 3.57938 16.3595C2.61625 16.3742 3.19125 16.9162 3.59375 17.1359C4.0825 17.4142 4.64313 18.4543 4.7725 18.7912C5.0025 19.4504 5.75 20.7102 8.63938 20.1682C8.63938 21.1497 8.65375 22.0726 8.65375 22.3509C8.65375 22.6585 8.43813 23.0101 7.86313 22.9076C5.57267 22.1306 3.58043 20.6385 2.16903 18.6427C0.75763 16.647 -0.00126569 14.2491 1.58457e-06 11.7891C1.58457e-06 5.31425 5.14625 0.0699463 11.5 0.0699463Z" fill="white"/>
</svg>
